  0
SECTION
  2
HEADER
  9
$ACADVER
  1
AC1014
  9
$HANDSEED
  5
FFFF
  9
$MEASUREMENT
 70
     1
  0
ENDSEC
  0
SECTION
  2
TABLES
  0
TABLE
  2
VPORT
  5
8
330
0
100
AcDbSymbolTable
 70
     4
  0
VPORT
  5
2E
330
8
100
AcDbSymbolTableRecord
100
AcDbViewportTableRecord
  2
*ACTIVE
 70
     0
 10
0.0
 20
0.0
 11
1.0
 21
1.0
 12
210.0
 22
148.5
 13
0.0
 23
0.0
 14
10.0
 24
10.0
 15
10.0
 25
10.0
 16
0.0
 26
0.0
 36
1.0
 17
0.0
 27
0.0
 37
0.0
 40
341.0
 41
1.24
 42
50.0
 43
0.0
 44
0.0
 50
0.0
 51
0.0
 71
     0
 72
   100
 73
     1
 74
     3
 75
     0
 76
     0
 77
     0
 78
     0
  0
ENDTAB
  0
TABLE
  2
LTYPE
  5
5
330
0
100
AcDbSymbolTable
 70
     1
  0
LTYPE
  5
14
330
5
100
AcDbSymbolTableRecord
100
AcDbLinetypeTableRecord
  2
BYBLOCK
 70
     0
  3

 72
    65
 73
     0
 40
0.0
  0
LTYPE
  5
15
330
5
100
AcDbSymbolTableRecord
100
AcDbLinetypeTableRecord
  2
BYLAYER
 70
     0
  3

 72
    65
 73
     0
 40
0.0
  0
LTYPE
  5
16
330
5
100
AcDbSymbolTableRecord
100
AcDbLinetypeTableRecord
  2
CONTINUOUS
 70
     0
  3
Solid line
 72
    65
 73
     0
 40
0.0
  0
ENDTAB
  0
TABLE
  2
LAYER
  5
2
100
AcDbSymbolTable
 70
3
  0
LAYER
  5
50
100
AcDbSymbolTableRecord
100
AcDbLayerTableRecord
  2
0
 70
0
  6
CONTINUOUS
  0
LAYER
  5
51
100
AcDbSymbolTableRecord
100
AcDbLayerTableRecord
  2
capa1
 70
0
  6
CONTINUOUS
  0
LAYER
  5
52
100
AcDbSymbolTableRecord
100
AcDbLayerTableRecord
  2
capa2
 70
0
  6
CONTINUOUS
  0
ENDTAB
  0
TABLE
  2
STYLE
  5
3
330
0
100
AcDbSymbolTable
 70
     1
  0
STYLE
  5
11
330
3
100
AcDbSymbolTableRecord
100
AcDbTextStyleTableRecord
  2
STANDARD
 70
     0
 40
0.0
 41
1.0
 50
0.0
 71
     0
 42
2.5
  3
txt
  4

  0
ENDTAB
  0
TABLE
  2
VIEW
  5
6
330
0
100
AcDbSymbolTable
 70
     0
  0
ENDTAB
  0
TABLE
  2
UCS
  5
7
330
0
100
AcDbSymbolTable
 70
     0
  0
ENDTAB
  0
TABLE
  2
APPID
  5
9
330
0
100
AcDbSymbolTable
 70
     2
  0
APPID
  5
12
330
9
100
AcDbSymbolTableRecord
100
AcDbRegAppTableRecord
  2
ACAD
 70
     0
  0
ENDTAB
  0
TABLE
  2
DIMSTYLE
  5
A
330
0
100
AcDbSymbolTable
 70
     1
  0
DIMSTYLE
105
27
330
A
100
AcDbSymbolTableRecord
100
AcDbDimStyleTableRecord
  2
ISO-25
 70
     0
  3

  4

  5

  6

  7

 40
1.0
 41
2.5
 42
0.625
 43
3.75
 44
1.25
 45
0.0
 46
0.0
 47
0.0
 48
0.0
140
2.5
141
2.5
142
0.0
143
0.03937007874016
144
1.0
145
0.0
146
1.0
147
0.625
 71
     0
 72
     0
 73
     0
 74
     0
 75
     0
 76
     0
 77
     1
 78
     8
170
     0
171
     3
172
     1
173
     0
174
     0
175
     0
176
     0
177
     0
178
     0
270
     2
271
     2
272
     2
273
     2
274
     3
340
11
275
     0
280
     0
281
     0
282
     0
283
     0
284
     8
285
     0
286
     0
287
     3
288
     0
  0
ENDTAB
  0
TABLE
  2
BLOCK_RECORD
  5
1
330
0
100
AcDbSymbolTable
 70
     1
  0
BLOCK_RECORD
  5
1F
330
1
100
AcDbSymbolTableRecord
100
AcDbBlockTableRecord
  2
*MODEL_SPACE
  0
BLOCK_RECORD
  5
1B
330
1
100
AcDbSymbolTableRecord
100
AcDbBlockTableRecord
  2
*PAPER_SPACE
  0
ENDTAB
  0
ENDSEC
  0
SECTION
  2
BLOCKS
  0
BLOCK
  5
20
330
1F
100
AcDbEntity
  8
0
100
AcDbBlockBegin
  2
*MODEL_SPACE
 70
     0
 10
0.0
 20
0.0
 30
0.0
  3
*MODEL_SPACE
  1

  0
ENDBLK
  5
21
330
1F
100
AcDbEntity
  8
0
100
AcDbBlockEnd
  0
BLOCK
  5
1C
330
1B
100
AcDbEntity
 67
     1
  8
0
100
AcDbBlockBegin
  2
*PAPER_SPACE
  1

  0
ENDBLK
  5
1D
330
1B
100
AcDbEntity
 67
     1
  8
0
100
AcDbBlockEnd
  0
ENDSEC
  0
SECTION
  2
ENTITIES
  0
LWPOLYLINE
  5
100
100
AcDbEntity
  8
capa1
 62
7
100
AcDbPolyline
 90
38
 70
0
 10
-34.018254
 20
-22.009494
 30
0.0
 10
-36.520334
 20
-17.688813
 30
0.0
 10
-37.998837
 20
-12.231143
 30
0.0
 10
-50.395511
 20
-10.525618
 30
0.0
 10
-50.168048
 20
3.004878
 30
0.0
 10
-37.998837
 20
4.937818
 30
0.0
 10
-37.202722
 20
8.121454
 30
0.0
 10
-35.269294
 20
12.896936
 30
0.0
 10
-33.904521
 20
15.398356
 30
0.0
 10
-32.539751
 20
17.331285
 30
0.0
 10
-40.387188
 20
27.450732
 30
0.0
 10
-30.492593
 20
37.001669
 30
0.0
 10
-20.484272
 20
29.611062
 30
0.0
 10
-16.958613
 20
31.885095
 30
0.0
 10
-9.907294
 20
34.613933
 30
0.0
 10
-8.087598
 20
34.727638
 30
0.0
 10
-6.267903
 20
47.121116
 30
0.0
 10
7.266081
 20
47.007412
 30
0.0
 10
8.972043
 20
34.386533
 30
0.0
 10
14.886052
 20
33.249516
 30
0.0
 10
21.709909
 20
29.724763
 30
0.0
 10
31.718236
 20
37.001669
 30
0.0
 10
41.385366
 20
27.223329
 30
0.0
 10
33.992854
 20
17.558688
 30
0.0
 10
37.291052
 20
10.622902
 30
0.0
 10
38.883285
 20
4.710403
 30
0.0
 10
51.393691
 20
3.004878
 30
0.0
 10
51.621151
 20
-10.525618
 30
0.0
 10
38.883285
 20
-12.117436
 30
0.0
 10
38.428360
 20
-14.277762
 30
0.0
 10
36.267475
 20
-20.986156
 30
0.0
 10
35.471357
 20
-22.236880
 30
0.0
 10
32.113372
 20
-22.102966
 30
0.0
 10
27.449017
 20
-12.776650
 30
0.0
 10
11.686711
 20
14.559084
 30
0.0
 10
-12.117588
 20
12.951094
 30
0.0
 10
-28.684090
 20
-21.459753
 30
0.0
 10
-34.018254
 20
-22.009494
 30
0.0
  0
LWPOLYLINE
  5
101
100
AcDbEntity
  8
capa2
 62
7
100
AcDbPolyline
 90
129
 70
0
 10
14.606201
 20
-3.678032
 30
0.0
 10
14.587687
 20
-4.409410
 30
0.0
 10
14.532786
 20
-5.131194
 30
0.0
 10
14.442382
 20
-5.842478
 30
0.0
 10
14.317361
 20
-6.542390
 30
0.0
 10
14.158616
 20
-7.230024
 30
0.0
 10
13.967047
 20
-7.904450
 30
0.0
 10
13.743541
 20
-8.564850
 30
0.0
 10
13.488993
 20
-9.210264
 30
0.0
 10
13.204299
 20
-9.839846
 30
0.0
 10
12.890346
 20
-10.452663
 30
0.0
 10
12.548033
 20
-11.047842
 30
0.0
 10
12.178252
 20
-11.624506
 30
0.0
 10
11.781896
 20
-12.181726
 30
0.0
 10
11.359858
 20
-12.718625
 30
0.0
 10
10.913032
 20
-13.234330
 30
0.0
 10
10.442308
 20
-13.727937
 30
0.0
 10
9.948583
 20
-14.198542
 30
0.0
 10
9.432749
 20
-14.645244
 30
0.0
 10
8.895697
 20
-15.067166
 30
0.0
 10
8.338325
 20
-15.463434
 30
0.0
 10
7.761522
 20
-15.833117
 30
0.0
 10
7.166182
 20
-16.175340
 30
0.0
 10
6.553201
 20
-16.489227
 30
0.0
 10
5.923468
 20
-16.773848
 30
0.0
 10
5.277882
 20
-17.028328
 30
0.0
 10
4.617329
 20
-17.251763
 30
0.0
 10
3.942708
 20
-17.443279
 30
0.0
 10
3.254913
 20
-17.602001
 30
0.0
 10
2.554829
 20
-17.726969
 30
0.0
 10
1.843359
 20
-17.817365
 30
0.0
 10
1.121389
 20
-17.872257
 30
0.0
 10
0.389818
 20
-17.890602
 30
0.0
 10
-0.341756
 20
-17.872257
 30
0.0
 10
-1.063722
 20
-17.817365
 30
0.0
 10
-1.775193
 20
-17.726969
 30
0.0
 10
-2.475276
 20
-17.602001
 30
0.0
 10
-3.163075
 20
-17.443279
 30
0.0
 10
-3.837696
 20
-17.251763
 30
0.0
 10
-4.498248
 20
-17.028328
 30
0.0
 10
-5.143834
 20
-16.773848
 30
0.0
 10
-5.773565
 20
-16.489227
 30
0.0
 10
-6.386549
 20
-16.175340
 30
0.0
 10
-6.981886
 20
-15.833117
 30
0.0
 10
-7.558689
 20
-15.463434
 30
0.0
 10
-8.116063
 20
-15.067166
 30
0.0
 10
-8.653113
 20
-14.645244
 30
0.0
 10
-9.168947
 20
-14.198542
 30
0.0
 10
-9.662672
 20
-13.727937
 30
0.0
 10
-10.133396
 20
-13.234330
 30
0.0
 10
-10.580222
 20
-12.718625
 30
0.0
 10
-11.002263
 20
-12.181726
 30
0.0
 10
-11.398618
 20
-11.624506
 30
0.0
 10
-11.768400
 20
-11.047842
 30
0.0
 10
-12.110710
 20
-10.452663
 30
0.0
 10
-12.424663
 20
-9.839846
 30
0.0
 10
-12.709357
 20
-9.210264
 30
0.0
 10
-12.963905
 20
-8.564850
 30
0.0
 10
-13.187410
 20
-7.904450
 30
0.0
 10
-13.378983
 20
-7.230024
 30
0.0
 10
-13.537724
 20
-6.542390
 30
0.0
 10
-13.662746
 20
-5.842478
 30
0.0
 10
-13.753153
 20
-5.131194
 30
0.0
 10
-13.808051
 20
-4.409410
 30
0.0
 10
-13.826565
 20
-3.678032
 30
0.0
 10
-13.808051
 20
-2.946653
 30
0.0
 10
-13.753153
 20
-2.224869
 30
0.0
 10
-13.662746
 20
-1.513585
 30
0.0
 10
-13.537724
 20
-0.813674
 30
0.0
 10
-13.378983
 20
-0.126067
 30
0.0
 10
-13.187410
 20
0.548387
 30
0.0
 10
-12.963905
 20
1.208759
 30
0.0
 10
-12.709357
 20
1.854201
 30
0.0
 10
-12.424663
 20
2.483754
 30
0.0
 10
-12.110710
 20
3.096572
 30
0.0
 10
-11.768400
 20
3.691778
 30
0.0
 10
-11.398618
 20
4.268415
 30
0.0
 10
-11.002263
 20
4.825663
 30
0.0
 10
-10.580222
 20
5.362562
 30
0.0
 10
-10.133396
 20
5.878267
 30
0.0
 10
-9.662672
 20
6.371874
 30
0.0
 10
-9.168947
 20
6.842479
 30
0.0
 10
-8.653113
 20
7.289180
 30
0.0
 10
-8.116063
 20
7.711103
 30
0.0
 10
-7.558689
 20
8.107371
 30
0.0
 10
-6.981886
 20
8.477054
 30
0.0
 10
-6.386549
 20
8.819276
 30
0.0
 10
-5.773565
 20
9.133136
 30
0.0
 10
-5.143834
 20
9.417757
 30
0.0
 10
-4.498248
 20
9.672237
 30
0.0
 10
-3.837696
 20
9.895700
 30
0.0
 10
-3.163075
 20
10.087216
 30
0.0
 10
-2.475276
 20
10.245910
 30
0.0
 10
-1.775193
 20
10.370906
 30
0.0
 10
-1.063722
 20
10.461302
 30
0.0
 10
-0.341756
 20
10.516166
 30
0.0
 10
0.389818
 20
10.534510
 30
0.0
 10
1.121389
 20
10.516166
 30
0.0
 10
1.843359
 20
10.461302
 30
0.0
 10
2.554829
 20
10.370906
 30
0.0
 10
3.254913
 20
10.245910
 30
0.0
 10
3.942708
 20
10.087216
 30
0.0
 10
4.617329
 20
9.895700
 30
0.0
 10
5.277882
 20
9.672237
 30
0.0
 10
5.923468
 20
9.417757
 30
0.0
 10
6.553201
 20
9.133136
 30
0.0
 10
7.166182
 20
8.819276
 30
0.0
 10
7.761522
 20
8.477054
 30
0.0
 10
8.338325
 20
8.107371
 30
0.0
 10
8.895697
 20
7.711103
 30
0.0
 10
9.432749
 20
7.289180
 30
0.0
 10
9.948583
 20
6.842479
 30
0.0
 10
10.442308
 20
6.371874
 30
0.0
 10
10.913032
 20
5.878267
 30
0.0
 10
11.359858
 20
5.362562
 30
0.0
 10
11.781896
 20
4.825663
 30
0.0
 10
12.178252
 20
4.268415
 30
0.0
 10
12.548033
 20
3.691778
 30
0.0
 10
12.890346
 20
3.096572
 30
0.0
 10
13.204299
 20
2.483754
 30
0.0
 10
13.488993
 20
1.854201
 30
0.0
 10
13.743541
 20
1.208759
 30
0.0
 10
13.967047
 20
0.548387
 30
0.0
 10
14.158616
 20
-0.126067
 30
0.0
 10
14.317361
 20
-0.813674
 30
0.0
 10
14.442382
 20
-1.513585
 30
0.0
 10
14.532786
 20
-2.224869
 30
0.0
 10
14.587687
 20
-2.946653
 30
0.0
 10
14.606201
 20
-3.678032
 30
0.0
  0
LWPOLYLINE
  5
102
100
AcDbEntity
  8
capa2
 62
7
100
AcDbPolyline
 90
385
 70
0
 10
-40.387188
 20
-34.744066
 30
0.0
 10
-39.736790
 20
-33.390302
 30
0.0
 10
-39.086389
 20
-32.036539
 30
0.0
 10
-38.435991
 20
-30.682775
 30
0.0
 10
-37.785593
 20
-29.329012
 30
0.0
 10
-37.135195
 20
-27.975276
 30
0.0
 10
-36.484794
 20
-26.621513
 30
0.0
 10
-35.834396
 20
-25.267749
 30
0.0
 10
-35.183998
 20
-23.913986
 30
0.0
 10
-34.533597
 20
-22.560222
 30
0.0
 10
-33.883199
 20
-21.206459
 30
0.0
 10
-33.232798
 20
-19.852695
 30
0.0
 10
-32.582400
 20
-18.498932
 30
0.0
 10
-31.932002
 20
-17.145196
 30
0.0
 10
-31.281604
 20
-15.791433
 30
0.0
 10
-30.631203
 20
-14.437669
 30
0.0
 10
-29.980805
 20
-13.083906
 30
0.0
 10
-29.330407
 20
-11.730142
 30
0.0
 10
-28.680006
 20
-10.376378
 30
0.0
 10
-28.029610
 20
-9.022615
 30
0.0
 10
-27.379209
 20
-7.668851
 30
0.0
 10
-26.728811
 20
-6.315088
 30
0.0
 10
-26.078413
 20
-4.961352
 30
0.0
 10
-25.428015
 20
-3.607589
 30
0.0
 10
-24.777617
 20
-2.253825
 30
0.0
 10
-24.127216
 20
-0.900062
 30
0.0
 10
-23.476818
 20
0.453702
 30
0.0
 10
-22.826417
 20
1.807465
 30
0.0
 10
-22.176019
 20
3.161229
 30
0.0
 10
-21.525621
 20
4.514992
 30
0.0
 10
-20.875223
 20
5.868728
 30
0.0
 10
-20.224822
 20
7.222491
 30
0.0
 10
-19.574424
 20
8.576255
 30
0.0
 10
-19.557011
 20
8.609811
 30
0.0
 10
-19.504399
 20
8.707629
 30
0.0
 10
-19.415998
 20
8.865392
 30
0.0
 10
-19.291217
 20
9.078808
 30
0.0
 10
-19.129475
 20
9.343532
 30
0.0
 10
-18.930184
 20
9.655332
 30
0.0
 10
-18.692753
 20
10.009859
 30
0.0
 10
-18.416602
 20
10.402797
 30
0.0
 10
-18.101142
 20
10.829884
 30
0.0
 10
-17.745788
 20
11.286774
 30
0.0
 10
-17.349951
 20
11.769204
 30
0.0
 10
-16.913049
 20
12.272858
 30
0.0
 10
-16.434490
 20
12.793389
 30
0.0
 10
-15.913694
 20
13.326563
 30
0.0
 10
-15.350071
 20
13.868034
 30
0.0
 10
-14.743033
 20
14.413514
 30
0.0
 10
-14.092000
 20
14.958674
 30
0.0
 10
-13.396379
 20
15.499242
 30
0.0
 10
-12.655585
 20
16.030904
 30
0.0
 10
-11.869038
 20
16.549352
 30
0.0
 10
-11.036143
 20
17.050290
 30
0.0
 10
-10.156318
 20
17.529408
 30
0.0
 10
-9.228979
 20
17.982403
 30
0.0
 10
-8.253534
 20
18.404974
 30
0.0
 10
-7.229400
 20
18.792818
 30
0.0
 10
-6.155993
 20
19.141628
 30
0.0
 10
-5.032721
 20
19.447105
 30
0.0
 10
-3.859004
 20
19.704940
 30
0.0
 10
-2.634249
 20
19.910833
 30
0.0
 10
-1.357877
 20
20.060484
 30
0.0
 10
-0.029296
 20
20.149581
 30
0.0
 10
1.352077
 20
20.173824
 30
0.0
 10
2.731168
 20
20.128271
 30
0.0
 10
4.053091
 20
20.013909
 30
0.0
 10
5.318725
 20
19.835347
 30
0.0
 10
6.528950
 20
19.597191
 30
0.0
 10
7.684642
 20
19.304049
 30
0.0
 10
8.786677
 20
18.960528
 30
0.0
 10
9.835934
 20
18.571237
 30
0.0
 10
10.833293
 20
18.140780
 30
0.0
 10
11.779632
 20
17.673767
 30
0.0
 10
12.675826
 20
17.174801
 30
0.0
 10
13.522753
 20
16.648496
 30
0.0
 10
14.321292
 20
16.099453
 30
0.0
 10
15.072322
 20
15.532282
 30
0.0
 10
15.776720
 20
14.951590
 30
0.0
 10
16.435362
 20
14.361980
 30
0.0
 10
17.049128
 20
13.768071
 30
0.0
 10
17.618895
 20
13.174473
 30
0.0
 10
18.145541
 20
12.585758
 30
0.0
 10
18.629945
 20
12.006581
 30
0.0
 10
19.072980
 20
11.441516
 30
0.0
 10
19.475528
 20
10.895162
 30
0.0
 10
19.838468
 20
10.372176
 30
0.0
 10
20.162677
 20
9.877102
 30
0.0
 10
20.449031
 20
9.414596
 30
0.0
 10
20.698408
 20
8.989259
 30
0.0
 10
20.911686
 20
8.605662
 30
0.0
 10
21.089746
 20
8.268463
 30
0.0
 10
21.233462
 20
7.982234
 30
0.0
 10
21.343712
 20
7.751573
 30
0.0
 10
21.421374
 20
7.581139
 30
0.0
 10
21.467331
 20
7.475475
 30
0.0
 10
21.482458
 20
7.439238
 30
0.0
 10
22.107978
 20
6.113894
 30
0.0
 10
22.733498
 20
4.788579
 30
0.0
 10
23.359018
 20
3.463235
 30
0.0
 10
23.984538
 20
2.137891
 30
0.0
 10
24.610059
 20
0.812576
 30
0.0
 10
25.235582
 20
-0.512768
 30
0.0
 10
25.861099
 20
-1.838112
 30
0.0
 10
26.486619
 20
-3.163428
 30
0.0
 10
27.112139
 20
-4.488771
 30
0.0
 10
27.737659
 20
-5.814115
 30
0.0
 10
28.363184
 20
-7.139431
 30
0.0
 10
28.988701
 20
-8.464774
 30
0.0
 10
29.614224
 20
-9.790118
 30
0.0
 10
30.239741
 20
-11.115434
 30
0.0
 10
30.865264
 20
-12.440778
 30
0.0
 10
31.490785
 20
-13.766121
 30
0.0
 10
32.116302
 20
-15.091437
 30
0.0
 10
32.741825
 20
-16.416781
 30
0.0
 10
33.367342
 20
-17.742124
 30
0.0
 10
33.992865
 20
-19.067440
 30
0.0
 10
34.618385
 20
-20.392784
 30
0.0
 10
35.243905
 20
-21.718128
 30
0.0
 10
35.869426
 20
-23.043443
 30
0.0
 10
36.494943
 20
-24.368787
 30
0.0
 10
37.120466
 20
-25.694131
 30
0.0
 10
37.745986
 20
-27.019474
 30
0.0
 10
38.371506
 20
-28.344790
 30
0.0
 10
38.997026
 20
-29.670134
 30
0.0
 10
39.622547
 20
-30.995478
 30
0.0
 10
40.248067
 20
-32.320793
 30
0.0
 10
40.873587
 20
-33.646137
 30
0.0
 10
41.499107
 20
-34.971481
 30
0.0
 10
41.189902
 20
-35.280599
 30
0.0
 10
40.880693
 20
-35.589717
 30
0.0
 10
40.571488
 20
-35.898863
 30
0.0
 10
40.262282
 20
-36.207981
 30
0.0
 10
39.953077
 20
-36.517099
 30
0.0
 10
39.643871
 20
-36.826217
 30
0.0
 10
39.334666
 20
-37.135363
 30
0.0
 10
39.025460
 20
-37.444481
 30
0.0
 10
38.716252
 20
-37.753599
 30
0.0
 10
38.407046
 20
-38.062745
 30
0.0
 10
38.097841
 20
-38.371863
 30
0.0
 10
37.788636
 20
-38.680981
 30
0.0
 10
37.479427
 20
-38.990099
 30
0.0
 10
37.170222
 20
-39.299246
 30
0.0
 10
36.861016
 20
-39.608364
 30
0.0
 10
36.551811
 20
-39.917482
 30
0.0
 10
36.242605
 20
-40.226628
 30
0.0
 10
35.933400
 20
-40.535746
 30
0.0
 10
35.624194
 20
-40.844864
 30
0.0
 10
35.314986
 20
-41.154010
 30
0.0
 10
35.005780
 20
-41.463128
 30
0.0
 10
34.696575
 20
-41.772246
 30
0.0
 10
34.387369
 20
-42.081364
 30
0.0
 10
34.078161
 20
-42.390510
 30
0.0
 10
33.768956
 20
-42.699628
 30
0.0
 10
33.459750
 20
-43.008746
 30
0.0
 10
33.150545
 20
-43.317892
 30
0.0
 10
32.841339
 20
-43.627010
 30
0.0
 10
32.532134
 20
-43.936128
 30
0.0
 10
32.222928
 20
-44.245275
 30
0.0
 10
31.913720
 20
-44.554393
 30
0.0
 10
31.604514
 20
-44.863511
 30
0.0
 10
31.227782
 20
-44.856455
 30
0.0
 10
30.851046
 20
-44.849400
 30
0.0
 10
30.474313
 20
-44.842344
 30
0.0
 10
30.097580
 20
-44.835288
 30
0.0
 10
29.720845
 20
-44.828233
 30
0.0
 10
29.344112
 20
-44.821177
 30
0.0
 10
28.967379
 20
-44.814122
 30
0.0
 10
28.590646
 20
-44.807066
 30
0.0
 10
28.213909
 20
-44.800011
 30
0.0
 10
27.837177
 20
-44.792955
 30
0.0
 10
27.460444
 20
-44.785900
 30
0.0
 10
27.083708
 20
-44.778844
 30
0.0
 10
26.706975
 20
-44.771788
 30
0.0
 10
26.330240
 20
-44.764733
 30
0.0
 10
25.953507
 20
-44.757677
 30
0.0
 10
25.576774
 20
-44.750622
 30
0.0
 10
25.200039
 20
-44.743566
 30
0.0
 10
24.823306
 20
-44.736511
 30
0.0
 10
24.446573
 20
-44.729455
 30
0.0
 10
24.069840
 20
-44.722400
 30
0.0
 10
23.693104
 20
-44.715344
 30
0.0
 10
23.316372
 20
-44.708288
 30
0.0
 10
22.939639
 20
-44.701233
 30
0.0
 10
22.562903
 20
-44.694177
 30
0.0
 10
22.186170
 20
-44.687122
 30
0.0
 10
21.809435
 20
-44.680066
 30
0.0
 10
21.432702
 20
-44.673011
 30
0.0
 10
21.055969
 20
-44.665955
 30
0.0
 10
20.679234
 20
-44.658900
 30
0.0
 10
20.302501
 20
-44.651844
 30
0.0
 10
19.925768
 20
-44.644788
 30
0.0
 10
19.549035
 20
-44.637733
 30
0.0
 10
19.254042
 20
-44.015941
 30
0.0
 10
18.959055
 20
-43.394121
 30
0.0
 10
18.664065
 20
-42.772329
 30
0.0
 10
18.369075
 20
-42.150508
 30
0.0
 10
18.074085
 20
-41.528716
 30
0.0
 10
17.779095
 20
-40.906896
 30
0.0
 10
17.484106
 20
-40.285104
 30
0.0
 10
17.189116
 20
-39.663284
 30
0.0
 10
16.894128
 20
-39.041492
 30
0.0
 10
16.599136
 20
-38.419672
 30
0.0
 10
16.304146
 20
-37.797880
 30
0.0
 10
16.009159
 20
-37.176060
 30
0.0
 10
15.714169
 20
-36.554268
 30
0.0
 10
15.419179
 20
-35.932447
 30
0.0
 10
15.124189
 20
-35.310655
 30
0.0
 10
14.829199
 20
-34.688835
 30
0.0
 10
14.534209
 20
-34.067043
 30
0.0
 10
14.239219
 20
-33.445223
 30
0.0
 10
13.944232
 20
-32.823431
 30
0.0
 10
13.649239
 20
-32.201611
 30
0.0
 10
13.354252
 20
-31.579819
 30
0.0
 10
13.059262
 20
-30.957998
 30
0.0
 10
12.764269
 20
-30.336206
 30
0.0
 10
12.469282
 20
-29.714386
 30
0.0
 10
12.174292
 20
-29.092594
 30
0.0
 10
11.879302
 20
-28.470774
 30
0.0
 10
11.584312
 20
-27.848982
 30
0.0
 10
11.289322
 20
-27.227162
 30
0.0
 10
10.994332
 20
-26.605370
 30
0.0
 10
10.699342
 20
-25.983550
 30
0.0
 10
10.404355
 20
-25.361758
 30
0.0
 10
10.109365
 20
-24.739937
 30
0.0
 10
10.099403
 20
-24.745017
 30
0.0
 10
10.069608
 20
-24.760257
 30
0.0
 10
10.020157
 20
-24.784811
 30
0.0
 10
9.951213
 20
-24.818028
 30
0.0
 10
9.862946
 20
-24.859204
 30
0.0
 10
9.755518
 20
-24.907747
 30
0.0
 10
9.629096
 20
-24.962921
 30
0.0
 10
9.483851
 20
-25.024107
 30
0.0
 10
9.319947
 20
-25.090627
 30
0.0
 10
9.137550
 20
-25.161803
 30
0.0
 10
8.936825
 20
-25.236959
 30
0.0
 10
8.717942
 20
-25.315473
 30
0.0
 10
8.481070
 20
-25.396640
 30
0.0
 10
8.226367
 20
-25.479811
 30
0.0
 10
7.954009
 20
-25.564308
 30
0.0
 10
7.664155
 20
-25.649455
 30
0.0
 10
7.356976
 20
-25.734630
 30
0.0
 10
7.032638
 20
-25.819127
 30
0.0
 10
6.691307
 20
-25.902298
 30
0.0
 10
6.333147
 20
-25.983465
 30
0.0
 10
5.958331
 20
-26.061979
 30
0.0
 10
5.567018
 20
-26.137135
 30
0.0
 10
5.159379
 20
-26.208311
 30
0.0
 10
4.735583
 20
-26.274831
 30
0.0
 10
4.295793
 20
-26.336017
 30
0.0
 10
3.840174
 20
-26.391191
 30
0.0
 10
3.368897
 20
-26.439705
 30
0.0
 10
2.882122
 20
-26.480910
 30
0.0
 10
2.380027
 20
-26.514099
 30
0.0
 10
1.862764
 20
-26.538652
 30
0.0
 10
1.330513
 20
-26.553892
 30
0.0
 10
0.783431
 20
-26.558972
 30
0.0
 10
0.234720
 20
-26.553892
 30
0.0
 10
-0.302287
 20
-26.538652
 30
0.0
 10
-0.827217
 20
-26.514099
 30
0.0
 10
-1.339693
 20
-26.480910
 30
0.0
 10
-1.839342
 20
-26.439705
 30
0.0
 10
-2.325786
 20
-26.391191
 30
0.0
 10
-2.798655
 20
-26.336017
 30
0.0
 10
-3.257571
 20
-26.274831
 30
0.0
 10
-3.702159
 20
-26.208311
 30
0.0
 10
-4.132042
 20
-26.137135
 30
0.0
 10
-4.546850
 20
-26.061979
 30
0.0
 10
-4.946208
 20
-25.983465
 30
0.0
 10
-5.329737
 20
-25.902298
 30
0.0
 10
-5.697066
 20
-25.819127
 30
0.0
 10
-6.047818
 20
-25.734630
 30
0.0
 10
-6.381616
 20
-25.649455
 30
0.0
 10
-6.698091
 20
-25.564308
 30
0.0
 10
-6.996863
 20
-25.479811
 30
0.0
 10
-7.277559
 20
-25.396640
 30
0.0
 10
-7.539805
 20
-25.315473
 30
0.0
 10
-7.783227
 20
-25.236959
 30
0.0
 10
-8.007447
 20
-25.161803
 30
0.0
 10
-8.212092
 20
-25.090627
 30
0.0
 10
-8.396787
 20
-25.024107
 30
0.0
 10
-8.561156
 20
-24.962921
 30
0.0
 10
-8.704824
 20
-24.907747
 30
0.0
 10
-8.827421
 20
-24.859204
 30
0.0
 10
-8.928567
 20
-24.818028
 30
0.0
 10
-9.007888
 20
-24.784811
 30
0.0
 10
-9.065010
 20
-24.760257
 30
0.0
 10
-9.099560
 20
-24.745017
 30
0.0
 10
-9.111159
 20
-24.739937
 30
0.0
 10
-9.406149
 20
-25.358202
 30
0.0
 10
-9.701139
 20
-25.976466
 30
0.0
 10
-9.996129
 20
-26.594702
 30
0.0
 10
-10.291116
 20
-27.212966
 30
0.0
 10
-10.586106
 20
-27.831202
 30
0.0
 10
-10.881099
 20
-28.449466
 30
0.0
 10
-11.176086
 20
-29.067730
 30
0.0
 10
-11.471076
 20
-29.685966
 30
0.0
 10
-11.766066
 20
-30.304231
 30
0.0
 10
-12.061056
 20
-30.922467
 30
0.0
 10
-12.356046
 20
-31.540731
 30
0.0
 10
-12.651036
 20
-32.158995
 30
0.0
 10
-12.946026
 20
-32.777231
 30
0.0
 10
-13.241013
 20
-33.395495
 30
0.0
 10
-13.536006
 20
-34.013731
 30
0.0
 10
-13.830996
 20
-34.631996
 30
0.0
 10
-14.125983
 20
-35.250260
 30
0.0
 10
-14.420973
 20
-35.868496
 30
0.0
 10
-14.715963
 20
-36.486760
 30
0.0
 10
-15.010953
 20
-37.104996
 30
0.0
 10
-15.305943
 20
-37.723260
 30
0.0
 10
-15.600933
 20
-38.341496
 30
0.0
 10
-15.895923
 20
-38.959760
 30
0.0
 10
-16.190912
 20
-39.578025
 30
0.0
 10
-16.485902
 20
-40.196261
 30
0.0
 10
-16.780890
 20
-40.814525
 30
0.0
 10
-17.075880
 20
-41.432761
 30
0.0
 10
-17.370872
 20
-42.051025
 30
0.0
 10
-17.665859
 20
-42.669289
 30
0.0
 10
-17.960849
 20
-43.287525
 30
0.0
 10
-18.255839
 20
-43.905790
 30
0.0
 10
-18.550829
 20
-44.524026
 30
0.0
 10
-18.934671
 20
-44.524026
 30
0.0
 10
-19.318513
 20
-44.524026
 30
0.0
 10
-19.702355
 20
-44.524026
 30
0.0
 10
-20.086197
 20
-44.524026
 30
0.0
 10
-20.470039
 20
-44.524026
 30
0.0
 10
-20.853881
 20
-44.524026
 30
0.0
 10
-21.237723
 20
-44.524026
 30
0.0
 10
-21.621565
 20
-44.524026
 30
0.0
 10
-22.005407
 20
-44.524026
 30
0.0
 10
-22.389249
 20
-44.524026
 30
0.0
 10
-22.773091
 20
-44.524026
 30
0.0
 10
-23.156933
 20
-44.524026
 30
0.0
 10
-23.540775
 20
-44.524026
 30
0.0
 10
-23.924617
 20
-44.524026
 30
0.0
 10
-24.308459
 20
-44.524026
 30
0.0
 10
-24.692301
 20
-44.524026
 30
0.0
 10
-25.076143
 20
-44.524026
 30
0.0
 10
-25.459985
 20
-44.524026
 30
0.0
 10
-25.843827
 20
-44.524026
 30
0.0
 10
-26.227669
 20
-44.524026
 30
0.0
 10
-26.611511
 20
-44.524026
 30
0.0
 10
-26.995353
 20
-44.524026
 30
0.0
 10
-27.379192
 20
-44.524026
 30
0.0
 10
-27.763037
 20
-44.524026
 30
0.0
 10
-28.146879
 20
-44.524026
 30
0.0
 10
-28.530717
 20
-44.524026
 30
0.0
 10
-28.914561
 20
-44.524026
 30
0.0
 10
-29.298403
 20
-44.524026
 30
0.0
 10
-29.682245
 20
-44.524026
 30
0.0
 10
-30.066084
 20
-44.524026
 30
0.0
 10
-30.449929
 20
-44.524026
 30
0.0
 10
-30.833771
 20
-44.524026
 30
0.0
 10
-31.132314
 20
-44.218464
 30
0.0
 10
-31.430857
 20
-43.912902
 30
0.0
 10
-31.729401
 20
-43.607311
 30
0.0
 10
-32.027944
 20
-43.301749
 30
0.0
 10
-32.326490
 20
-42.996159
 30
0.0
 10
-32.625033
 20
-42.690597
 30
0.0
 10
-32.923576
 20
-42.385035
 30
0.0
 10
-33.222119
 20
-42.079445
 30
0.0
 10
-33.520665
 20
-41.773883
 30
0.0
 10
-33.819208
 20
-41.468293
 30
0.0
 10
-34.117751
 20
-41.162731
 30
0.0
 10
-34.416297
 20
-40.857169
 30
0.0
 10
-34.714840
 20
-40.551578
 30
0.0
 10
-35.013384
 20
-40.246016
 30
0.0
 10
-35.311927
 20
-39.940426
 30
0.0
 10
-35.610473
 20
-39.634864
 30
0.0
 10
-35.909016
 20
-39.329302
 30
0.0
 10
-36.207559
 20
-39.023712
 30
0.0
 10
-36.506102
 20
-38.718150
 30
0.0
 10
-36.804645
 20
-38.412560
 30
0.0
 10
-37.103191
 20
-38.106998
 30
0.0
 10
-37.401734
 20
-37.801436
 30
0.0
 10
-37.700277
 20
-37.495846
 30
0.0
 10
-37.998821
 20
-37.190284
 30
0.0
 10
-38.297364
 20
-36.884693
 30
0.0
 10
-38.595910
 20
-36.579131
 30
0.0
 10
-38.894453
 20
-36.273569
 30
0.0
 10
-39.192996
 20
-35.967979
 30
0.0
 10
-39.491539
 20
-35.662417
 30
0.0
 10
-39.790085
 20
-35.356855
 30
0.0
 10
-40.088628
 20
-35.051265
 30
0.0
 10
-40.387188
 20
-34.744066
 30
0.0
  0
ENDSEC
  0
SECTION
  2
OBJECTS
  0
DICTIONARY
  5
C
330
0
100
AcDbDictionary
  3
ACAD_GROUP
350
D
  3
ACAD_MLINESTYLE
350
17
  0
DICTIONARY
  5
D
330
C
100
AcDbDictionary
  0
DICTIONARY
  5
1A
330
C
100
AcDbDictionary
  0
DICTIONARY
  5
17
330
C
100
AcDbDictionary
  3
STANDARD
350
18
  0
DICTIONARY
  5
19
330
C
100
AcDbDictionary
  0
ENDSEC
  0
EOF
