  0
SECTION
  2
HEADER
  9
$ACADVER
  1
AC1014
  9
$HANDSEED
  5
FFFF
  9
$MEASUREMENT
 70
     1
  0
ENDSEC
  0
SECTION
  2
TABLES
  0
TABLE
  2
VPORT
  5
8
330
0
100
AcDbSymbolTable
 70
     4
  0
VPORT
  5
2E
330
8
100
AcDbSymbolTableRecord
100
AcDbViewportTableRecord
  2
*ACTIVE
 70
     0
 10
0.0
 20
0.0
 11
1.0
 21
1.0
 12
210.0
 22
148.5
 13
0.0
 23
0.0
 14
10.0
 24
10.0
 15
10.0
 25
10.0
 16
0.0
 26
0.0
 36
1.0
 17
0.0
 27
0.0
 37
0.0
 40
341.0
 41
1.24
 42
50.0
 43
0.0
 44
0.0
 50
0.0
 51
0.0
 71
     0
 72
   100
 73
     1
 74
     3
 75
     0
 76
     0
 77
     0
 78
     0
  0
ENDTAB
  0
TABLE
  2
LTYPE
  5
5
330
0
100
AcDbSymbolTable
 70
     1
  0
LTYPE
  5
14
330
5
100
AcDbSymbolTableRecord
100
AcDbLinetypeTableRecord
  2
BYBLOCK
 70
     0
  3

 72
    65
 73
     0
 40
0.0
  0
LTYPE
  5
15
330
5
100
AcDbSymbolTableRecord
100
AcDbLinetypeTableRecord
  2
BYLAYER
 70
     0
  3

 72
    65
 73
     0
 40
0.0
  0
LTYPE
  5
16
330
5
100
AcDbSymbolTableRecord
100
AcDbLinetypeTableRecord
  2
CONTINUOUS
 70
     0
  3
Solid line
 72
    65
 73
     0
 40
0.0
  0
ENDTAB
  0
TABLE
  2
LAYER
  5
2
100
AcDbSymbolTable
 70
5
  0
LAYER
  5
50
100
AcDbSymbolTableRecord
100
AcDbLayerTableRecord
  2
0
 70
0
  6
CONTINUOUS
  0
LAYER
  5
51
100
AcDbSymbolTableRecord
100
AcDbLayerTableRecord
  2
back
 70
0
  6
CONTINUOUS
  0
LAYER
  5
52
100
AcDbSymbolTableRecord
100
AcDbLayerTableRecord
  2
base
 70
0
  6
CONTINUOUS
  0
LAYER
  5
53
100
AcDbSymbolTableRecord
100
AcDbLayerTableRecord
  2
A
 70
0
  6
CONTINUOUS
  0
LAYER
  5
54
100
AcDbSymbolTableRecord
100
AcDbLayerTableRecord
  2
hole
 70
0
  6
CONTINUOUS
  0
ENDTAB
  0
TABLE
  2
STYLE
  5
3
330
0
100
AcDbSymbolTable
 70
     1
  0
STYLE
  5
11
330
3
100
AcDbSymbolTableRecord
100
AcDbTextStyleTableRecord
  2
STANDARD
 70
     0
 40
0.0
 41
1.0
 50
0.0
 71
     0
 42
2.5
  3
txt
  4

  0
ENDTAB
  0
TABLE
  2
VIEW
  5
6
330
0
100
AcDbSymbolTable
 70
     0
  0
ENDTAB
  0
TABLE
  2
UCS
  5
7
330
0
100
AcDbSymbolTable
 70
     0
  0
ENDTAB
  0
TABLE
  2
APPID
  5
9
330
0
100
AcDbSymbolTable
 70
     2
  0
APPID
  5
12
330
9
100
AcDbSymbolTableRecord
100
AcDbRegAppTableRecord
  2
ACAD
 70
     0
  0
ENDTAB
  0
TABLE
  2
DIMSTYLE
  5
A
330
0
100
AcDbSymbolTable
 70
     1
  0
DIMSTYLE
105
27
330
A
100
AcDbSymbolTableRecord
100
AcDbDimStyleTableRecord
  2
ISO-25
 70
     0
  3

  4

  5

  6

  7

 40
1.0
 41
2.5
 42
0.625
 43
3.75
 44
1.25
 45
0.0
 46
0.0
 47
0.0
 48
0.0
140
2.5
141
2.5
142
0.0
143
0.03937007874016
144
1.0
145
0.0
146
1.0
147
0.625
 71
     0
 72
     0
 73
     0
 74
     0
 75
     0
 76
     0
 77
     1
 78
     8
170
     0
171
     3
172
     1
173
     0
174
     0
175
     0
176
     0
177
     0
178
     0
270
     2
271
     2
272
     2
273
     2
274
     3
340
11
275
     0
280
     0
281
     0
282
     0
283
     0
284
     8
285
     0
286
     0
287
     3
288
     0
  0
ENDTAB
  0
TABLE
  2
BLOCK_RECORD
  5
1
330
0
100
AcDbSymbolTable
 70
     1
  0
BLOCK_RECORD
  5
1F
330
1
100
AcDbSymbolTableRecord
100
AcDbBlockTableRecord
  2
*MODEL_SPACE
  0
BLOCK_RECORD
  5
1B
330
1
100
AcDbSymbolTableRecord
100
AcDbBlockTableRecord
  2
*PAPER_SPACE
  0
ENDTAB
  0
ENDSEC
  0
SECTION
  2
BLOCKS
  0
BLOCK
  5
20
330
1F
100
AcDbEntity
  8
0
100
AcDbBlockBegin
  2
*MODEL_SPACE
 70
     0
 10
0.0
 20
0.0
 30
0.0
  3
*MODEL_SPACE
  1

  0
ENDBLK
  5
21
330
1F
100
AcDbEntity
  8
0
100
AcDbBlockEnd
  0
BLOCK
  5
1C
330
1B
100
AcDbEntity
 67
     1
  8
0
100
AcDbBlockBegin
  2
*PAPER_SPACE
  1

  0
ENDBLK
  5
1D
330
1B
100
AcDbEntity
 67
     1
  8
0
100
AcDbBlockEnd
  0
ENDSEC
  0
SECTION
  2
ENTITIES
  0
LWPOLYLINE
  5
100
100
AcDbEntity
  8
base
 62
7
100
AcDbPolyline
 90
47
 70
0
 10
40.720634
 20
144.134926
 30
0.0
 10
36.285715
 20
151.795244
 30
0.0
 10
33.665078
 20
161.471436
 30
0.0
 10
11.692063
 20
164.495244
 30
0.0
 10
12.095238
 20
188.484133
 30
0.0
 10
33.665078
 20
191.911118
 30
0.0
 10
35.076189
 20
197.555563
 30
0.0
 10
38.503174
 20
206.022229
 30
0.0
 10
40.922222
 20
210.457148
 30
0.0
 10
43.341270
 20
213.884133
 30
0.0
 10
29.431745
 20
231.825403
 30
0.0
 10
46.969841
 20
248.758737
 30
0.0
 10
64.709523
 20
235.655563
 30
0.0
 10
70.958730
 20
239.687307
 30
0.0
 10
83.457144
 20
244.525403
 30
0.0
 10
86.682540
 20
244.726992
 30
0.0
 10
89.907937
 20
266.700007
 30
0.0
 10
113.896826
 20
266.498418
 30
0.0
 10
116.920634
 20
244.122229
 30
0.0
 10
127.403174
 20
242.106355
 30
0.0
 10
139.498411
 20
235.857148
 30
0.0
 10
157.238096
 20
248.758737
 30
0.0
 10
174.373015
 20
231.422229
 30
0.0
 10
161.269841
 20
214.287307
 30
0.0
 10
167.115874
 20
201.990482
 30
0.0
 10
169.938096
 20
191.507944
 30
0.0
 10
192.112700
 20
188.484133
 30
0.0
 10
192.515874
 20
164.495244
 30
0.0
 10
169.938096
 20
161.673022
 30
0.0
 10
169.131745
 20
157.842863
 30
0.0
 10
165.301589
 20
145.949214
 30
0.0
 10
163.890477
 20
143.731752
 30
0.0
 10
174.373015
 20
121.355563
 30
0.0
 10
157.238096
 20
103.817466
 30
0.0
 10
135.668255
 20
103.615878
 30
0.0
 10
118.533333
 20
139.700007
 30
0.0
 10
115.912700
 20
138.288896
 30
0.0
 10
111.679366
 20
136.877785
 30
0.0
 10
106.639682
 20
136.273022
 30
0.0
 10
102.204763
 20
136.071436
 30
0.0
 10
96.358730
 20
136.273022
 30
0.0
 10
90.915874
 20
137.280959
 30
0.0
 10
84.666667
 20
139.296833
 30
0.0
 10
67.934922
 20
104.220641
 30
0.0
 10
46.566667
 20
104.422229
 30
0.0
 10
29.028571
 20
121.758737
 30
0.0
 10
40.720634
 20
144.134926
 30
0.0
  0
LWPOLYLINE
  5
101
100
AcDbEntity
  8
A
 62
7
100
AcDbPolyline
 90
353
 70
0
 10
29.431745
 20
121.557148
 30
0.0
 10
30.584572
 20
123.957296
 30
0.0
 10
31.737399
 20
126.357446
 30
0.0
 10
32.890226
 20
128.757594
 30
0.0
 10
34.043056
 20
131.157744
 30
0.0
 10
35.195883
 20
133.557892
 30
0.0
 10
36.348710
 20
135.958042
 30
0.0
 10
37.501536
 20
138.358190
 30
0.0
 10
38.654363
 20
140.758340
 30
0.0
 10
39.807190
 20
143.158488
 30
0.0
 10
40.960020
 20
145.558636
 30
0.0
 10
42.112847
 20
147.958786
 30
0.0
 10
43.265674
 20
150.358934
 30
0.0
 10
44.418501
 20
152.759084
 30
0.0
 10
45.571328
 20
155.159232
 30
0.0
 10
46.724155
 20
157.559382
 30
0.0
 10
47.876982
 20
159.959530
 30
0.0
 10
49.029812
 20
162.359677
 30
0.0
 10
50.182639
 20
164.759828
 30
0.0
 10
51.335466
 20
167.159975
 30
0.0
 10
52.488293
 20
169.560126
 30
0.0
 10
53.641120
 20
171.960273
 30
0.0
 10
54.793947
 20
174.360424
 30
0.0
 10
55.946777
 20
176.760571
 30
0.0
 10
57.099604
 20
179.160722
 30
0.0
 10
58.252431
 20
181.560869
 30
0.0
 10
59.405258
 20
183.961017
 30
0.0
 10
60.558085
 20
186.361167
 30
0.0
 10
61.710911
 20
188.761315
 30
0.0
 10
62.863741
 20
191.161465
 30
0.0
 10
64.016568
 20
193.561613
 30
0.0
 10
65.169395
 20
195.961763
 30
0.0
 10
66.322222
 20
198.361911
 30
0.0
 10
67.471420
 20
200.366620
 30
0.0
 10
68.789852
 20
202.306714
 30
0.0
 10
70.267858
 20
204.175316
 30
0.0
 10
71.895767
 20
205.965542
 30
0.0
 10
73.663917
 20
207.670517
 30
0.0
 10
75.562641
 20
209.283363
 30
0.0
 10
77.582271
 20
210.797198
 30
0.0
 10
79.713142
 20
212.205148
 30
0.0
 10
81.945590
 20
213.500334
 30
0.0
 10
84.269947
 20
214.675877
 30
0.0
 10
86.676549
 20
215.724894
 30
0.0
 10
89.155730
 20
216.640513
 30
0.0
 10
91.697821
 20
217.415854
 30
0.0
 10
94.293159
 20
218.044038
 30
0.0
 10
96.932078
 20
218.518185
 30
0.0
 10
99.604909
 20
218.831418
 30
0.0
 10
102.301991
 20
218.976859
 30
0.0
 10
105.013656
 20
218.947626
 30
0.0
 10
107.730236
 20
218.736848
 30
0.0
 10
110.442070
 20
218.337639
 30
0.0
 10
113.139485
 20
217.743127
 30
0.0
 10
115.812821
 20
216.946428
 30
0.0
 10
118.452412
 20
215.940667
 30
0.0
 10
121.048588
 20
214.718963
 30
0.0
 10
123.591687
 20
213.274440
 30
0.0
 10
126.072039
 20
211.600219
 30
0.0
 10
128.479982
 20
209.689422
 30
0.0
 10
130.805849
 20
207.535169
 30
0.0
 10
133.039976
 20
205.130582
 30
0.0
 10
135.172693
 20
202.468783
 30
0.0
 10
137.194335
 20
199.542895
 30
0.0
 10
139.095237
 20
196.346037
 30
0.0
 10
140.203967
 20
193.996286
 30
0.0
 10
141.312697
 20
191.646532
 30
0.0
 10
142.421427
 20
189.296781
 30
0.0
 10
143.530159
 20
186.947030
 30
0.0
 10
144.638889
 20
184.597278
 30
0.0
 10
145.747619
 20
182.247524
 30
0.0
 10
146.856348
 20
179.897773
 30
0.0
 10
147.965078
 20
177.548022
 30
0.0
 10
149.073808
 20
175.198268
 30
0.0
 10
150.182540
 20
172.848517
 30
0.0
 10
151.291270
 20
170.498766
 30
0.0
 10
152.400000
 20
168.149015
 30
0.0
 10
153.508730
 20
165.799261
 30
0.0
 10
154.617460
 20
163.449509
 30
0.0
 10
155.726189
 20
161.099758
 30
0.0
 10
156.834922
 20
158.750007
 30
0.0
 10
157.943652
 20
156.400253
 30
0.0
 10
159.052381
 20
154.050502
 30
0.0
 10
160.161111
 20
151.700751
 30
0.0
 10
161.269841
 20
149.350997
 30
0.0
 10
162.378571
 20
147.001245
 30
0.0
 10
163.487300
 20
144.651494
 30
0.0
 10
164.596033
 20
142.301743
 30
0.0
 10
165.704763
 20
139.951989
 30
0.0
 10
166.813492
 20
137.602238
 30
0.0
 10
167.922222
 20
135.252487
 30
0.0
 10
169.030952
 20
132.902733
 30
0.0
 10
170.139682
 20
130.552982
 30
0.0
 10
171.248414
 20
128.203230
 30
0.0
 10
172.357144
 20
125.853479
 30
0.0
 10
173.465874
 20
123.503725
 30
0.0
 10
174.574604
 20
121.153974
 30
0.0
 10
174.026539
 20
120.605910
 30
0.0
 10
173.478472
 20
120.057843
 30
0.0
 10
172.930408
 20
119.509778
 30
0.0
 10
172.382341
 20
118.961711
 30
0.0
 10
171.834277
 20
118.413647
 30
0.0
 10
171.286210
 20
117.865580
 30
0.0
 10
170.738145
 20
117.317516
 30
0.0
 10
170.190078
 20
116.769451
 30
0.0
 10
169.642014
 20
116.221384
 30
0.0
 10
169.093950
 20
115.673320
 30
0.0
 10
168.545883
 20
115.125253
 30
0.0
 10
167.997818
 20
114.577189
 30
0.0
 10
167.449751
 20
114.029122
 30
0.0
 10
166.901687
 20
113.481057
 30
0.0
 10
166.353620
 20
112.932990
 30
0.0
 10
165.805556
 20
112.384926
 30
0.0
 10
165.257491
 20
111.836862
 30
0.0
 10
164.709424
 20
111.288795
 30
0.0
 10
164.161360
 20
110.740730
 30
0.0
 10
163.613293
 20
110.192663
 30
0.0
 10
163.065229
 20
109.644599
 30
0.0
 10
162.517161
 20
109.096532
 30
0.0
 10
161.969097
 20
108.548468
 30
0.0
 10
161.421033
 20
108.000401
 30
0.0
 10
160.872966
 20
107.452336
 30
0.0
 10
160.324902
 20
106.904272
 30
0.0
 10
159.776835
 20
106.356205
 30
0.0
 10
159.228770
 20
105.808141
 30
0.0
 10
158.680703
 20
105.260074
 30
0.0
 10
158.132639
 20
104.712009
 30
0.0
 10
157.584572
 20
104.163942
 30
0.0
 10
157.036508
 20
103.615878
 30
0.0
 10
156.368750
 20
103.628465
 30
0.0
 10
155.700992
 20
103.641080
 30
0.0
 10
155.033235
 20
103.653668
 30
0.0
 10
154.365477
 20
103.666255
 30
0.0
 10
153.697717
 20
103.678842
 30
0.0
 10
153.029960
 20
103.691429
 30
0.0
 10
152.362202
 20
103.704016
 30
0.0
 10
151.694444
 20
103.716631
 30
0.0
 10
151.026687
 20
103.729218
 30
0.0
 10
150.358929
 20
103.741806
 30
0.0
 10
149.691172
 20
103.754393
 30
0.0
 10
149.023411
 20
103.766980
 30
0.0
 10
148.355654
 20
103.779567
 30
0.0
 10
147.687896
 20
103.792154
 30
0.0
 10
147.020139
 20
103.804769
 30
0.0
 10
146.352381
 20
103.817356
 30
0.0
 10
145.684624
 20
103.829944
 30
0.0
 10
145.016866
 20
103.842559
 30
0.0
 10
144.349109
 20
103.855146
 30
0.0
 10
143.681348
 20
103.867733
 30
0.0
 10
143.013591
 20
103.880320
 30
0.0
 10
142.345833
 20
103.892907
 30
0.0
 10
141.678076
 20
103.905494
 30
0.0
 10
141.010318
 20
103.918082
 30
0.0
 10
140.342561
 20
103.930697
 30
0.0
 10
139.674803
 20
103.943284
 30
0.0
 10
139.007046
 20
103.955871
 30
0.0
 10
138.339285
 20
103.968458
 30
0.0
 10
137.671528
 20
103.981045
 30
0.0
 10
137.003770
 20
103.993632
 30
0.0
 10
136.336013
 20
104.006248
 30
0.0
 10
135.668255
 20
104.018835
 30
0.0
 10
135.145388
 20
105.121265
 30
0.0
 10
134.622520
 20
106.223696
 30
0.0
 10
134.099653
 20
107.326127
 30
0.0
 10
133.576785
 20
108.428557
 30
0.0
 10
133.053921
 20
109.530988
 30
0.0
 10
132.531053
 20
110.633418
 30
0.0
 10
132.008186
 20
111.735849
 30
0.0
 10
131.485318
 20
112.838279
 30
0.0
 10
130.962451
 20
113.940710
 30
0.0
 10
130.439583
 20
115.043140
 30
0.0
 10
129.916716
 20
116.145571
 30
0.0
 10
129.393848
 20
117.248002
 30
0.0
 10
128.870984
 20
118.350432
 30
0.0
 10
128.348116
 20
119.452863
 30
0.0
 10
127.825249
 20
120.555293
 30
0.0
 10
127.302381
 20
121.657724
 30
0.0
 10
126.779514
 20
122.760154
 30
0.0
 10
126.256646
 20
123.862585
 30
0.0
 10
125.733779
 20
124.965015
 30
0.0
 10
125.210911
 20
126.067446
 30
0.0
 10
124.688047
 20
127.169877
 30
0.0
 10
124.165179
 20
128.272307
 30
0.0
 10
123.642312
 20
129.374738
 30
0.0
 10
123.119444
 20
130.477168
 30
0.0
 10
122.596577
 20
131.579599
 30
0.0
 10
122.073710
 20
132.682029
 30
0.0
 10
121.550842
 20
133.784460
 30
0.0
 10
121.027975
 20
134.886890
 30
0.0
 10
120.505110
 20
135.989321
 30
0.0
 10
119.982242
 20
137.091752
 30
0.0
 10
119.459375
 20
138.194182
 30
0.0
 10
118.936508
 20
139.296613
 30
0.0
 10
118.918840
 20
139.287356
 30
0.0
 10
118.866031
 20
139.260375
 30
0.0
 10
118.778378
 20
139.216868
 30
0.0
 10
118.656176
 20
139.158008
 30
0.0
 10
118.499718
 20
139.084971
 30
0.0
 10
118.309303
 20
138.998942
 30
0.0
 10
118.085224
 20
138.901101
 30
0.0
 10
117.827778
 20
138.792631
 30
0.0
 10
117.537258
 20
138.674711
 30
0.0
 10
117.213959
 20
138.548521
 30
0.0
 10
116.858181
 20
138.415244
 30
0.0
 10
116.470213
 20
138.276063
 30
0.0
 10
116.050354
 20
138.132155
 30
0.0
 10
115.598900
 20
137.984705
 30
0.0
 10
115.116142
 20
137.834893
 30
0.0
 10
114.602381
 20
137.683899
 30
0.0
 10
114.057907
 20
137.532907
 30
0.0
 10
113.483020
 20
137.383095
 30
0.0
 10
112.878012
 20
137.235645
 30
0.0
 10
112.243179
 20
137.091737
 30
0.0
 10
111.578816
 20
136.952557
 30
0.0
 10
110.885221
 20
136.819280
 30
0.0
 10
110.162687
 20
136.693090
 30
0.0
 10
109.411508
 20
136.575169
 30
0.0
 10
108.631982
 20
136.466700
 30
0.0
 10
107.824400
 20
136.368859
 30
0.0
 10
106.989064
 20
136.282829
 30
0.0
 10
106.126263
 20
136.209793
 30
0.0
 10
105.236298
 20
136.150933
 30
0.0
 10
104.319459
 20
136.107425
 30
0.0
 10
103.376044
 20
136.080445
 30
0.0
 10
102.406348
 20
136.071188
 30
0.0
 10
101.433760
 20
136.080445
 30
0.0
 10
100.481917
 20
136.107425
 30
0.0
 10
99.551484
 20
136.150933
 30
0.0
 10
98.643124
 20
136.209793
 30
0.0
 10
97.757499
 20
136.282829
 30
0.0
 10
96.895279
 20
136.368859
 30
0.0
 10
96.057125
 20
136.466700
 30
0.0
 10
95.243701
 20
136.575169
 30
0.0
 10
94.455671
 20
136.693090
 30
0.0
 10
93.693702
 20
136.819280
 30
0.0
 10
92.958457
 20
136.952557
 30
0.0
 10
92.250601
 20
137.091737
 30
0.0
 10
91.570799
 20
137.235645
 30
0.0
 10
90.919712
 20
137.383095
 30
0.0
 10
90.298008
 20
137.532907
 30
0.0
 10
89.706351
 20
137.683899
 30
0.0
 10
89.145404
 20
137.834893
 30
0.0
 10
88.615830
 20
137.984705
 30
0.0
 10
88.118295
 20
138.132155
 30
0.0
 10
87.653467
 20
138.276063
 30
0.0
 10
87.222005
 20
138.415244
 30
0.0
 10
86.824577
 20
138.548521
 30
0.0
 10
86.461846
 20
138.674711
 30
0.0
 10
86.134476
 20
138.792631
 30
0.0
 10
85.843130
 20
138.901101
 30
0.0
 10
85.588478
 20
138.998942
 30
0.0
 10
85.371178
 20
139.084971
 30
0.0
 10
85.191896
 20
139.158008
 30
0.0
 10
85.051302
 20
139.216868
 30
0.0
 10
84.950052
 20
139.260375
 30
0.0
 10
84.888815
 20
139.287356
 30
0.0
 10
84.868241
 20
139.296613
 30
0.0
 10
84.345374
 20
138.200481
 30
0.0
 10
83.822506
 20
137.104350
 30
0.0
 10
83.299639
 20
136.008219
 30
0.0
 10
82.776771
 20
134.912090
 30
0.0
 10
82.253907
 20
133.815959
 30
0.0
 10
81.731039
 20
132.719827
 30
0.0
 10
81.208172
 20
131.623696
 30
0.0
 10
80.685304
 20
130.527565
 30
0.0
 10
80.162437
 20
129.431433
 30
0.0
 10
79.639569
 20
128.335302
 30
0.0
 10
79.116702
 20
127.239171
 30
0.0
 10
78.593834
 20
126.143042
 30
0.0
 10
78.070970
 20
125.046911
 30
0.0
 10
77.548102
 20
123.950779
 30
0.0
 10
77.025235
 20
122.854648
 30
0.0
 10
76.502367
 20
121.758517
 30
0.0
 10
75.979500
 20
120.662385
 30
0.0
 10
75.456632
 20
119.566254
 30
0.0
 10
74.933765
 20
118.470123
 30
0.0
 10
74.410897
 20
117.373991
 30
0.0
 10
73.888033
 20
116.277863
 30
0.0
 10
73.365165
 20
115.181731
 30
0.0
 10
72.842298
 20
114.085600
 30
0.0
 10
72.319430
 20
112.989469
 30
0.0
 10
71.796563
 20
111.893337
 30
0.0
 10
71.273695
 20
110.797206
 30
0.0
 10
70.750828
 20
109.701075
 30
0.0
 10
70.227960
 20
108.604946
 30
0.0
 10
69.705096
 20
107.508815
 30
0.0
 10
69.182228
 20
106.412683
 30
0.0
 10
68.659361
 20
105.316552
 30
0.0
 10
68.136493
 20
104.220421
 30
0.0
 10
67.456137
 20
104.220421
 30
0.0
 10
66.775779
 20
104.220421
 30
0.0
 10
66.095423
 20
104.220421
 30
0.0
 10
65.415064
 20
104.220421
 30
0.0
 10
64.734708
 20
104.220421
 30
0.0
 10
64.054349
 20
104.220421
 30
0.0
 10
63.373993
 20
104.220421
 30
0.0
 10
62.693635
 20
104.220421
 30
0.0
 10
62.013279
 20
104.220421
 30
0.0
 10
61.332923
 20
104.220421
 30
0.0
 10
60.652564
 20
104.220421
 30
0.0
 10
59.972208
 20
104.220421
 30
0.0
 10
59.291849
 20
104.220421
 30
0.0
 10
58.611493
 20
104.220421
 30
0.0
 10
57.931135
 20
104.220421
 30
0.0
 10
57.250779
 20
104.220421
 30
0.0
 10
56.570423
 20
104.220421
 30
0.0
 10
55.890064
 20
104.220421
 30
0.0
 10
55.209708
 20
104.220421
 30
0.0
 10
54.529349
 20
104.220421
 30
0.0
 10
53.848993
 20
104.220421
 30
0.0
 10
53.168635
 20
104.220421
 30
0.0
 10
52.488279
 20
104.220421
 30
0.0
 10
51.807920
 20
104.220421
 30
0.0
 10
51.127564
 20
104.220421
 30
0.0
 10
50.447208
 20
104.220421
 30
0.0
 10
49.766849
 20
104.220421
 30
0.0
 10
49.086493
 20
104.220421
 30
0.0
 10
48.406135
 20
104.220421
 30
0.0
 10
47.725779
 20
104.220421
 30
0.0
 10
47.045420
 20
104.220421
 30
0.0
 10
46.365064
 20
104.220421
 30
0.0
 10
45.835897
 20
104.762186
 30
0.0
 10
45.306731
 20
105.303954
 30
0.0
 10
44.777564
 20
105.845719
 30
0.0
 10
44.248397
 20
106.387484
 30
0.0
 10
43.719231
 20
106.929249
 30
0.0
 10
43.190064
 20
107.471017
 30
0.0
 10
42.660897
 20
108.012782
 30
0.0
 10
42.131731
 20
108.554547
 30
0.0
 10
41.602564
 20
109.096315
 30
0.0
 10
41.073397
 20
109.638080
 30
0.0
 10
40.544231
 20
110.179845
 30
0.0
 10
40.015064
 20
110.721610
 30
0.0
 10
39.485897
 20
111.263378
 30
0.0
 10
38.956731
 20
111.805143
 30
0.0
 10
38.427564
 20
112.346908
 30
0.0
 10
37.898397
 20
112.888676
 30
0.0
 10
37.369231
 20
113.430441
 30
0.0
 10
36.840064
 20
113.972206
 30
0.0
 10
36.310897
 20
114.513971
 30
0.0
 10
35.781731
 20
115.055739
 30
0.0
 10
35.252564
 20
115.597504
 30
0.0
 10
34.723397
 20
116.139269
 30
0.0
 10
34.194231
 20
116.681034
 30
0.0
 10
33.665064
 20
117.222802
 30
0.0
 10
33.135897
 20
117.764567
 30
0.0
 10
32.606731
 20
118.306332
 30
0.0
 10
32.077564
 20
118.848100
 30
0.0
 10
31.548397
 20
119.389865
 30
0.0
 10
31.019231
 20
119.931630
 30
0.0
 10
30.490064
 20
120.473395
 30
0.0
 10
29.960897
 20
121.015163
 30
0.0
 10
29.431745
 20
121.557148
 30
0.0
  0
LWPOLYLINE
  5
102
100
AcDbEntity
  8
hole
 62
7
100
AcDbPolyline
 90
129
 70
0
 10
126.798415
 20
176.792067
 30
0.0
 10
126.766415
 20
175.526481
 30
0.0
 10
126.671442
 20
174.277508
 30
0.0
 10
126.515042
 20
173.046695
 30
0.0
 10
126.298761
 20
171.835590
 30
0.0
 10
126.024140
 20
170.645730
 30
0.0
 10
125.692732
 20
169.478667
 30
0.0
 10
125.306079
 20
168.335945
 30
0.0
 10
124.865725
 20
167.219107
 30
0.0
 10
124.373215
 20
166.129701
 30
0.0
 10
123.830095
 20
165.069273
 30
0.0
 10
123.237911
 20
164.039364
 30
0.0
 10
122.598207
 20
163.041522
 30
0.0
 10
121.912529
 20
162.077292
 30
0.0
 10
121.182421
 20
161.148220
 30
0.0
 10
120.409432
 20
160.255851
 30
0.0
 10
119.595103
 20
159.401728
 30
0.0
 10
118.740980
 20
158.587399
 30
0.0
 10
117.848611
 20
157.814409
 30
0.0
 10
116.919539
 20
157.084302
 30
0.0
 10
115.955309
 20
156.398624
 30
0.0
 10
114.957467
 20
155.758919
 30
0.0
 10
113.927558
 20
155.166736
 30
0.0
 10
112.867130
 20
154.623616
 30
0.0
 10
111.777723
 20
154.131105
 30
0.0
 10
110.660886
 20
153.690752
 30
0.0
 10
109.518163
 20
153.304099
 30
0.0
 10
108.351101
 20
152.972690
 30
0.0
 10
107.161241
 20
152.698070
 30
0.0
 10
105.950136
 20
152.481788
 30
0.0
 10
104.719323
 20
152.325389
 30
0.0
 10
103.470350
 20
152.230416
 30
0.0
 10
102.204764
 20
152.198416
 30
0.0
 10
100.939177
 20
152.230416
 30
0.0
 10
99.690204
 20
152.325389
 30
0.0
 10
98.459392
 20
152.481788
 30
0.0
 10
97.248286
 20
152.698070
 30
0.0
 10
96.058426
 20
152.972690
 30
0.0
 10
94.891364
 20
153.304099
 30
0.0
 10
93.748641
 20
153.690752
 30
0.0
 10
92.631804
 20
154.131105
 30
0.0
 10
91.542397
 20
154.623616
 30
0.0
 10
90.481969
 20
155.166736
 30
0.0
 10
89.452060
 20
155.758919
 30
0.0
 10
88.454218
 20
156.398624
 30
0.0
 10
87.489988
 20
157.084302
 30
0.0
 10
86.560916
 20
157.814409
 30
0.0
 10
85.668548
 20
158.587399
 30
0.0
 10
84.814424
 20
159.401728
 30
0.0
 10
84.000095
 20
160.255851
 30
0.0
 10
83.227106
 20
161.148220
 30
0.0
 10
82.496998
 20
162.077292
 30
0.0
 10
81.811320
 20
163.041522
 30
0.0
 10
81.171616
 20
164.039364
 30
0.0
 10
80.579432
 20
165.069273
 30
0.0
 10
80.036313
 20
166.129701
 30
0.0
 10
79.543802
 20
167.219107
 30
0.0
 10
79.103448
 20
168.335945
 30
0.0
 10
78.716795
 20
169.478667
 30
0.0
 10
78.385387
 20
170.645730
 30
0.0
 10
78.110766
 20
171.835590
 30
0.0
 10
77.894485
 20
173.046695
 30
0.0
 10
77.738085
 20
174.277508
 30
0.0
 10
77.643112
 20
175.526481
 30
0.0
 10
77.611112
 20
176.792067
 30
0.0
 10
77.643112
 20
178.057653
 30
0.0
 10
77.738085
 20
179.306627
 30
0.0
 10
77.894485
 20
180.537439
 30
0.0
 10
78.110766
 20
181.748545
 30
0.0
 10
78.385387
 20
182.938405
 30
0.0
 10
78.716795
 20
184.105467
 30
0.0
 10
79.103448
 20
185.248190
 30
0.0
 10
79.543802
 20
186.365027
 30
0.0
 10
80.036313
 20
187.454434
 30
0.0
 10
80.579432
 20
188.514861
 30
0.0
 10
81.171616
 20
189.544770
 30
0.0
 10
81.811320
 20
190.542613
 30
0.0
 10
82.496998
 20
191.506842
 30
0.0
 10
83.227106
 20
192.435914
 30
0.0
 10
84.000095
 20
193.328283
 30
0.0
 10
84.814424
 20
194.182406
 30
0.0
 10
85.668548
 20
194.996736
 30
0.0
 10
86.560916
 20
195.769725
 30
0.0
 10
87.489988
 20
196.499833
 30
0.0
 10
88.454218
 20
197.185510
 30
0.0
 10
89.452060
 20
197.825215
 30
0.0
 10
90.481969
 20
198.417398
 30
0.0
 10
91.542397
 20
198.960518
 30
0.0
 10
92.631804
 20
199.453029
 30
0.0
 10
93.748641
 20
199.893382
 30
0.0
 10
94.891364
 20
200.280036
 30
0.0
 10
96.058426
 20
200.611444
 30
0.0
 10
97.248286
 20
200.886065
 30
0.0
 10
98.459392
 20
201.102346
 30
0.0
 10
99.690204
 20
201.258746
 30
0.0
 10
100.939177
 20
201.353719
 30
0.0
 10
102.204764
 20
201.385719
 30
0.0
 10
103.470350
 20
201.353719
 30
0.0
 10
104.719323
 20
201.258746
 30
0.0
 10
105.950136
 20
201.102346
 30
0.0
 10
107.161241
 20
200.886065
 30
0.0
 10
108.351101
 20
200.611444
 30
0.0
 10
109.518163
 20
200.280036
 30
0.0
 10
110.660886
 20
199.893382
 30
0.0
 10
111.777723
 20
199.453029
 30
0.0
 10
112.867130
 20
198.960518
 30
0.0
 10
113.927558
 20
198.417398
 30
0.0
 10
114.957467
 20
197.825215
 30
0.0
 10
115.955309
 20
197.185510
 30
0.0
 10
116.919539
 20
196.499833
 30
0.0
 10
117.848611
 20
195.769725
 30
0.0
 10
118.740980
 20
194.996736
 30
0.0
 10
119.595103
 20
194.182406
 30
0.0
 10
120.409432
 20
193.328283
 30
0.0
 10
121.182421
 20
192.435914
 30
0.0
 10
121.912529
 20
191.506842
 30
0.0
 10
122.598207
 20
190.542613
 30
0.0
 10
123.237911
 20
189.544770
 30
0.0
 10
123.830095
 20
188.514861
 30
0.0
 10
124.373215
 20
187.454434
 30
0.0
 10
124.865725
 20
186.365027
 30
0.0
 10
125.306079
 20
185.248190
 30
0.0
 10
125.692732
 20
184.105467
 30
0.0
 10
126.024140
 20
182.938405
 30
0.0
 10
126.298761
 20
181.748545
 30
0.0
 10
126.515042
 20
180.537439
 30
0.0
 10
126.671442
 20
179.306627
 30
0.0
 10
126.766415
 20
178.057653
 30
0.0
 10
126.798415
 20
176.792067
 30
0.0
  0
ENDSEC
  0
SECTION
  2
OBJECTS
  0
DICTIONARY
  5
C
330
0
100
AcDbDictionary
  3
ACAD_GROUP
350
D
  3
ACAD_MLINESTYLE
350
17
  0
DICTIONARY
  5
D
330
C
100
AcDbDictionary
  0
DICTIONARY
  5
1A
330
C
100
AcDbDictionary
  0
DICTIONARY
  5
17
330
C
100
AcDbDictionary
  3
STANDARD
350
18
  0
DICTIONARY
  5
19
330
C
100
AcDbDictionary
  0
ENDSEC
  0
EOF
