  0
SECTION
  2
HEADER
  9
$ACADVER
  1
AC1014
  9
$HANDSEED
  5
FFFF
  9
$MEASUREMENT
 70
     1
  0
ENDSEC
  0
SECTION
  2
TABLES
  0
TABLE
  2
VPORT
  5
8
330
0
100
AcDbSymbolTable
 70
     4
  0
VPORT
  5
2E
330
8
100
AcDbSymbolTableRecord
100
AcDbViewportTableRecord
  2
*ACTIVE
 70
     0
 10
0.0
 20
0.0
 11
1.0
 21
1.0
 12
210.0
 22
148.5
 13
0.0
 23
0.0
 14
10.0
 24
10.0
 15
10.0
 25
10.0
 16
0.0
 26
0.0
 36
1.0
 17
0.0
 27
0.0
 37
0.0
 40
341.0
 41
1.24
 42
50.0
 43
0.0
 44
0.0
 50
0.0
 51
0.0
 71
     0
 72
   100
 73
     1
 74
     3
 75
     0
 76
     0
 77
     0
 78
     0
  0
ENDTAB
  0
TABLE
  2
LTYPE
  5
5
330
0
100
AcDbSymbolTable
 70
     1
  0
LTYPE
  5
14
330
5
100
AcDbSymbolTableRecord
100
AcDbLinetypeTableRecord
  2
BYBLOCK
 70
     0
  3

 72
    65
 73
     0
 40
0.0
  0
LTYPE
  5
15
330
5
100
AcDbSymbolTableRecord
100
AcDbLinetypeTableRecord
  2
BYLAYER
 70
     0
  3

 72
    65
 73
     0
 40
0.0
  0
LTYPE
  5
16
330
5
100
AcDbSymbolTableRecord
100
AcDbLinetypeTableRecord
  2
CONTINUOUS
 70
     0
  3
Solid line
 72
    65
 73
     0
 40
0.0
  0
ENDTAB
  0
TABLE
  2
LAYER
  5
2
100
AcDbSymbolTable
 70
3
  0
LAYER
  5
50
100
AcDbSymbolTableRecord
100
AcDbLayerTableRecord
  2
0
 70
0
  6
CONTINUOUS
  0
LAYER
  5
51
100
AcDbSymbolTableRecord
100
AcDbLayerTableRecord
  2
Layer_1
 70
0
  6
CONTINUOUS
  0
LAYER
  5
52
100
AcDbSymbolTableRecord
100
AcDbLayerTableRecord
  2
capa1
 70
0
  6
CONTINUOUS
  0
ENDTAB
  0
TABLE
  2
STYLE
  5
3
330
0
100
AcDbSymbolTable
 70
     1
  0
STYLE
  5
11
330
3
100
AcDbSymbolTableRecord
100
AcDbTextStyleTableRecord
  2
STANDARD
 70
     0
 40
0.0
 41
1.0
 50
0.0
 71
     0
 42
2.5
  3
txt
  4

  0
ENDTAB
  0
TABLE
  2
VIEW
  5
6
330
0
100
AcDbSymbolTable
 70
     0
  0
ENDTAB
  0
TABLE
  2
UCS
  5
7
330
0
100
AcDbSymbolTable
 70
     0
  0
ENDTAB
  0
TABLE
  2
APPID
  5
9
330
0
100
AcDbSymbolTable
 70
     2
  0
APPID
  5
12
330
9
100
AcDbSymbolTableRecord
100
AcDbRegAppTableRecord
  2
ACAD
 70
     0
  0
ENDTAB
  0
TABLE
  2
DIMSTYLE
  5
A
330
0
100
AcDbSymbolTable
 70
     1
  0
DIMSTYLE
105
27
330
A
100
AcDbSymbolTableRecord
100
AcDbDimStyleTableRecord
  2
ISO-25
 70
     0
  3

  4

  5

  6

  7

 40
1.0
 41
2.5
 42
0.625
 43
3.75
 44
1.25
 45
0.0
 46
0.0
 47
0.0
 48
0.0
140
2.5
141
2.5
142
0.0
143
0.03937007874016
144
1.0
145
0.0
146
1.0
147
0.625
 71
     0
 72
     0
 73
     0
 74
     0
 75
     0
 76
     0
 77
     1
 78
     8
170
     0
171
     3
172
     1
173
     0
174
     0
175
     0
176
     0
177
     0
178
     0
270
     2
271
     2
272
     2
273
     2
274
     3
340
11
275
     0
280
     0
281
     0
282
     0
283
     0
284
     8
285
     0
286
     0
287
     3
288
     0
  0
ENDTAB
  0
TABLE
  2
BLOCK_RECORD
  5
1
330
0
100
AcDbSymbolTable
 70
     1
  0
BLOCK_RECORD
  5
1F
330
1
100
AcDbSymbolTableRecord
100
AcDbBlockTableRecord
  2
*MODEL_SPACE
  0
BLOCK_RECORD
  5
1B
330
1
100
AcDbSymbolTableRecord
100
AcDbBlockTableRecord
  2
*PAPER_SPACE
  0
ENDTAB
  0
ENDSEC
  0
SECTION
  2
BLOCKS
  0
BLOCK
  5
20
330
1F
100
AcDbEntity
  8
0
100
AcDbBlockBegin
  2
*MODEL_SPACE
 70
     0
 10
0.0
 20
0.0
 30
0.0
  3
*MODEL_SPACE
  1

  0
ENDBLK
  5
21
330
1F
100
AcDbEntity
  8
0
100
AcDbBlockEnd
  0
BLOCK
  5
1C
330
1B
100
AcDbEntity
 67
     1
  8
0
100
AcDbBlockBegin
  2
*PAPER_SPACE
  1

  0
ENDBLK
  5
1D
330
1B
100
AcDbEntity
 67
     1
  8
0
100
AcDbBlockEnd
  0
ENDSEC
  0
SECTION
  2
ENTITIES
  0
LWPOLYLINE
  5
100
100
AcDbEntity
  8
capa1
 62
7
100
AcDbPolyline
 90
353
 70
0
 10
-2.147175
 20
4.647101
 30
0.0
 10
-2.175131
 20
4.631578
 30
0.0
 10
-2.254138
 20
4.584730
 30
0.0
 10
-2.376903
 20
4.506074
 30
0.0
 10
-2.536133
 20
4.395133
 30
0.0
 10
-2.724535
 20
4.251425
 30
0.0
 10
-2.934815
 20
4.074500
 30
0.0
 10
-3.159682
 20
3.863849
 30
0.0
 10
-3.391841
 20
3.619022
 30
0.0
 10
-3.624001
 20
3.339537
 30
0.0
 10
-3.848867
 20
3.024916
 30
0.0
 10
-4.059148
 20
2.674706
 30
0.0
 10
-4.247549
 20
2.288428
 30
0.0
 10
-4.406779
 20
1.865575
 30
0.0
 10
-4.529544
 20
1.405722
 30
0.0
 10
-4.608551
 20
0.908362
 30
0.0
 10
-4.636508
 20
0.373043
 30
0.0
 10
-4.597367
 20
-0.270114
 30
0.0
 10
-4.485311
 20
-0.862159
 30
0.0
 10
-4.308395
 20
-1.404280
 30
0.0
 10
-4.074671
 20
-1.897746
 30
0.0
 10
-3.792193
 20
-2.343713
 30
0.0
 10
-3.469012
 20
-2.743453
 30
0.0
 10
-3.113182
 20
-3.098121
 30
0.0
 10
-2.732757
 20
-3.408961
 30
0.0
 10
-2.335788
 20
-3.677185
 30
0.0
 10
-1.930330
 20
-3.904007
 30
0.0
 10
-1.524435
 20
-4.090640
 30
0.0
 10
-1.126156
 20
-4.238299
 30
0.0
 10
-0.743547
 20
-4.348196
 30
0.0
 10
-0.384659
 20
-4.421518
 30
0.0
 10
-0.057547
 20
-4.459533
 30
0.0
 10
0.229737
 20
-4.463484
 30
0.0
 10
0.888170
 20
-4.397698
 30
0.0
 10
1.491435
 20
-4.270811
 30
0.0
 10
2.041203
 20
-4.089201
 30
0.0
 10
2.539144
 20
-3.859162
 30
0.0
 10
2.986928
 20
-3.587043
 30
0.0
 10
3.386226
 20
-3.279167
 30
0.0
 10
3.738708
 20
-2.941883
 30
0.0
 10
4.046044
 20
-2.581514
 30
0.0
 10
4.309904
 20
-2.204380
 30
0.0
 10
4.531960
 20
-1.816832
 30
0.0
 10
4.713881
 20
-1.425164
 30
0.0
 10
4.857337
 20
-1.035754
 30
0.0
 10
4.963999
 20
-0.654895
 30
0.0
 10
5.035537
 20
-0.288938
 30
0.0
 10
5.073622
 20
0.055797
 30
0.0
 10
5.079924
 20
0.372958
 30
0.0
 10
5.036008
 20
0.953574
 30
0.0
 10
4.945156
 20
1.485309
 30
0.0
 10
4.814234
 20
1.969715
 30
0.0
 10
4.650110
 20
2.408373
 30
0.0
 10
4.459651
 20
2.802891
 30
0.0
 10
4.249725
 20
3.154794
 30
0.0
 10
4.027199
 20
3.465718
 30
0.0
 10
3.798940
 20
3.737216
 30
0.0
 10
3.571817
 20
3.970868
 30
0.0
 10
3.352695
 20
4.168254
 30
0.0
 10
3.148443
 20
4.330927
 30
0.0
 10
2.965929
 20
4.460495
 30
0.0
 10
2.812018
 20
4.558511
 30
0.0
 10
2.693580
 20
4.626583
 30
0.0
 10
2.617481
 20
4.666264
 30
0.0
 10
2.590588
 20
4.679246
 30
0.0
 10
2.603214
 20
4.662312
 30
0.0
 10
2.638895
 20
4.613149
 30
0.0
 10
2.694337
 20
4.534155
 30
0.0
 10
2.766247
 20
4.427673
 30
0.0
 10
2.851332
 20
4.296186
 30
0.0
 10
2.946297
 20
4.142036
 30
0.0
 10
3.047850
 20
3.967651
 30
0.0
 10
3.152696
 20
3.775429
 30
0.0
 10
3.257542
 20
3.567770
 30
0.0
 10
3.359095
 20
3.347072
 30
0.0
 10
3.454060
 20
3.115735
 30
0.0
 10
3.539145
 20
2.876128
 30
0.0
 10
3.611055
 20
2.630708
 30
0.0
 10
3.666498
 20
2.381872
 30
0.0
 10
3.702178
 20
2.131964
 30
0.0
 10
3.714805
 20
1.883440
 30
0.0
 10
3.699799
 20
1.605310
 30
0.0
 10
3.656512
 20
1.339880
 30
0.0
 10
3.587530
 20
1.088589
 30
0.0
 10
3.495443
 20
0.852933
 30
0.0
 10
3.382840
 20
0.634380
 30
0.0
 10
3.252311
 20
0.434370
 30
0.0
 10
3.106443
 20
0.254396
 30
0.0
 10
2.947826
 20
0.095929
 30
0.0
 10
2.779050
 20
-0.039566
 30
0.0
 10
2.602703
 20
-0.150621
 30
0.0
 10
2.421373
 20
-0.235767
 30
0.0
 10
2.237651
 20
-0.293538
 30
0.0
 10
2.054125
 20
-0.322466
 30
0.0
 10
1.873385
 20
-0.322466
 30
0.0
 10
1.698018
 20
-0.289305
 30
0.0
 10
1.530615
 20
-0.222870
 30
0.0
 10
1.428309
 20
-0.155531
 30
0.0
 10
1.332223
 20
-0.063329
 30
0.0
 10
1.243174
 20
0.051253
 30
0.0
 10
1.161977
 20
0.185591
 30
0.0
 10
1.089448
 20
0.337172
 30
0.0
 10
1.026403
 20
0.503429
 30
0.0
 10
0.973657
 20
0.681822
 30
0.0
 10
0.932026
 20
0.869782
 30
0.0
 10
0.902326
 20
1.064769
 30
0.0
 10
0.885372
 20
1.264244
 30
0.0
 10
0.881979
 20
1.465666
 30
0.0
 10
0.892964
 20
1.666439
 30
0.0
 10
0.919142
 20
1.864051
 30
0.0
 10
0.961328
 20
2.055906
 30
0.0
 10
1.020339
 20
2.239491
 30
0.0
 10
1.096990
 20
2.412268
 30
0.0
 10
1.154734
 20
2.512428
 30
0.0
 10
1.221271
 20
2.607848
 30
0.0
 10
1.294875
 20
2.698243
 30
0.0
 10
1.373818
 20
2.783418
 30
0.0
 10
1.456372
 20
2.863146
 30
0.0
 10
1.540810
 20
2.937144
 30
0.0
 10
1.625404
 20
3.005216
 30
0.0
 10
1.708428
 20
3.067108
 30
0.0
 10
1.788154
 20
3.122621
 30
0.0
 10
1.862854
 20
3.171474
 30
0.0
 10
1.930801
 20
3.213468
 30
0.0
 10
1.990268
 20
3.248323
 30
0.0
 10
2.039526
 20
3.275980
 30
0.0
 10
2.076850
 20
3.296018
 30
0.0
 10
2.100511
 20
3.308154
 30
0.0
 10
2.108782
 20
3.312105
 30
0.0
 10
2.073650
 20
3.352265
 30
0.0
 10
2.038519
 20
3.392454
 30
0.0
 10
2.003387
 20
3.432614
 30
0.0
 10
1.968256
 20
3.472774
 30
0.0
 10
1.933124
 20
3.512962
 30
0.0
 10
1.897992
 20
3.553123
 30
0.0
 10
1.862861
 20
3.593283
 30
0.0
 10
1.827729
 20
3.633443
 30
0.0
 10
1.792598
 20
3.673632
 30
0.0
 10
1.757466
 20
3.713792
 30
0.0
 10
1.722335
 20
3.753952
 30
0.0
 10
1.687203
 20
3.794140
 30
0.0
 10
1.652072
 20
3.834301
 30
0.0
 10
1.616940
 20
3.874461
 30
0.0
 10
1.581809
 20
3.914649
 30
0.0
 10
1.546677
 20
3.954810
 30
0.0
 10
1.487455
 20
3.913633
 30
0.0
 10
1.428233
 20
3.872457
 30
0.0
 10
1.369010
 20
3.831281
 30
0.0
 10
1.309788
 20
3.790105
 30
0.0
 10
1.250566
 20
3.748957
 30
0.0
 10
1.191344
 20
3.707780
 30
0.0
 10
1.132121
 20
3.666604
 30
0.0
 10
1.072899
 20
3.625428
 30
0.0
 10
1.013677
 20
3.584252
 30
0.0
 10
0.954455
 20
3.543076
 30
0.0
 10
0.895233
 20
3.501899
 30
0.0
 10
0.836010
 20
3.460723
 30
0.0
 10
0.776788
 20
3.419575
 30
0.0
 10
0.717566
 20
3.378399
 30
0.0
 10
0.658344
 20
3.337223
 30
0.0
 10
0.599121
 20
3.296046
 30
0.0
 10
0.599923
 20
3.299715
 30
0.0
 10
0.602350
 20
3.310158
 30
0.0
 10
0.606431
 20
3.327373
 30
0.0
 10
0.612197
 20
3.350515
 30
0.0
 10
0.619680
 20
3.379274
 30
0.0
 10
0.628908
 20
3.413197
 30
0.0
 10
0.639914
 20
3.451833
 30
0.0
 10
0.652727
 20
3.494759
 30
0.0
 10
0.667378
 20
3.541495
 30
0.0
 10
0.683897
 20
3.591646
 30
0.0
 10
0.702316
 20
3.644732
 30
0.0
 10
0.722665
 20
3.700330
 30
0.0
 10
0.744973
 20
3.757988
 30
0.0
 10
0.769272
 20
3.817254
 30
0.0
 10
0.795593
 20
3.877678
 30
0.0
 10
0.823965
 20
3.938836
 30
0.0
 10
0.849633
 20
3.990652
 30
0.0
 10
0.875826
 20
4.040408
 30
0.0
 10
0.902243
 20
4.087906
 30
0.0
 10
0.928582
 20
4.132976
 30
0.0
 10
0.954543
 20
4.175423
 30
0.0
 10
0.979825
 20
4.215131
 30
0.0
 10
1.004127
 20
4.251848
 30
0.0
 10
1.027149
 20
4.285461
 30
0.0
 10
1.048589
 20
4.315772
 30
0.0
 10
1.068146
 20
4.342583
 30
0.0
 10
1.085520
 20
4.365725
 30
0.0
 10
1.100410
 20
4.385198
 30
0.0
 10
1.112515
 20
4.400438
 30
0.0
 10
1.121534
 20
4.411727
 30
0.0
 10
1.127166
 20
4.418501
 30
0.0
 10
1.129110
 20
4.421323
 30
0.0
 10
1.072900
 20
4.484597
 30
0.0
 10
1.016689
 20
4.547843
 30
0.0
 10
0.960478
 20
4.611117
 30
0.0
 10
0.904267
 20
4.674392
 30
0.0
 10
0.848057
 20
4.737666
 30
0.0
 10
0.791846
 20
4.800940
 30
0.0
 10
0.735635
 20
4.864186
 30
0.0
 10
0.679424
 20
4.927460
 30
0.0
 10
0.623214
 20
4.990734
 30
0.0
 10
0.567003
 20
5.053980
 30
0.0
 10
0.510792
 20
5.117255
 30
0.0
 10
0.454582
 20
5.180529
 30
0.0
 10
0.398371
 20
5.243803
 30
0.0
 10
0.342160
 20
5.307077
 30
0.0
 10
0.285949
 20
5.370323
 30
0.0
 10
0.229739
 20
5.433598
 30
0.0
 10
0.172524
 20
5.369336
 30
0.0
 10
0.115309
 20
5.305045
 30
0.0
 10
0.058095
 20
5.240783
 30
0.0
 10
0.000880
 20
5.176521
 30
0.0
 10
-0.056334
 20
5.112231
 30
0.0
 10
-0.113549
 20
5.047969
 30
0.0
 10
-0.170763
 20
4.983707
 30
0.0
 10
-0.227978
 20
4.919417
 30
0.0
 10
-0.285192
 20
4.855155
 30
0.0
 10
-0.342407
 20
4.790893
 30
0.0
 10
-0.399622
 20
4.726631
 30
0.0
 10
-0.456836
 20
4.662341
 30
0.0
 10
-0.514051
 20
4.598079
 30
0.0
 10
-0.571265
 20
4.533817
 30
0.0
 10
-0.628480
 20
4.469526
 30
0.0
 10
-0.685694
 20
4.405264
 30
0.0
 10
-0.682965
 20
4.402160
 30
0.0
 10
-0.675155
 20
4.393129
 30
0.0
 10
-0.662827
 20
4.378453
 30
0.0
 10
-0.646547
 20
4.358698
 30
0.0
 10
-0.626880
 20
4.334427
 30
0.0
 10
-0.604389
 20
4.306007
 30
0.0
 10
-0.579640
 20
4.273862
 30
0.0
 10
-0.553197
 20
4.238443
 30
0.0
 10
-0.525625
 20
4.200202
 30
0.0
 10
-0.497488
 20
4.159590
 30
0.0
 10
-0.469351
 20
4.117031
 30
0.0
 10
-0.441779
 20
4.073004
 30
0.0
 10
-0.415336
 20
4.027933
 30
0.0
 10
-0.390588
 20
3.982270
 30
0.0
 10
-0.368097
 20
3.936465
 30
0.0
 10
-0.348430
 20
3.890971
 30
0.0
 10
-0.330025
 20
3.844574
 30
0.0
 10
-0.311103
 20
3.796229
 30
0.0
 10
-0.291899
 20
3.746614
 30
0.0
 10
-0.272647
 20
3.696407
 30
0.0
 10
-0.253583
 20
3.646284
 30
0.0
 10
-0.234943
 20
3.596952
 30
0.0
 10
-0.216961
 20
3.549087
 30
0.0
 10
-0.199874
 20
3.503339
 30
0.0
 10
-0.183915
 20
3.460441
 30
0.0
 10
-0.169321
 20
3.421014
 30
0.0
 10
-0.156327
 20
3.385821
 30
0.0
 10
-0.145168
 20
3.355454
 30
0.0
 10
-0.136079
 20
3.330619
 30
0.0
 10
-0.129296
 20
3.311992
 30
0.0
 10
-0.125053
 20
3.300421
 30
0.0
 10
-0.123587
 20
3.296470
 30
0.0
 10
-0.182809
 20
3.337646
 30
0.0
 10
-0.242031
 20
3.378822
 30
0.0
 10
-0.301253
 20
3.419998
 30
0.0
 10
-0.360475
 20
3.461146
 30
0.0
 10
-0.419697
 20
3.502323
 30
0.0
 10
-0.478919
 20
3.543499
 30
0.0
 10
-0.538141
 20
3.584675
 30
0.0
 10
-0.597363
 20
3.625851
 30
0.0
 10
-0.656585
 20
3.667028
 30
0.0
 10
-0.715807
 20
3.708204
 30
0.0
 10
-0.775029
 20
3.749380
 30
0.0
 10
-0.834251
 20
3.790528
 30
0.0
 10
-0.893473
 20
3.831704
 30
0.0
 10
-0.952695
 20
3.872880
 30
0.0
 10
-1.011917
 20
3.914057
 30
0.0
 10
-1.071139
 20
3.955233
 30
0.0
 10
-1.107275
 20
3.914057
 30
0.0
 10
-1.143410
 20
3.872880
 30
0.0
 10
-1.179546
 20
3.831704
 30
0.0
 10
-1.215681
 20
3.790528
 30
0.0
 10
-1.251816
 20
3.749380
 30
0.0
 10
-1.287952
 20
3.708204
 30
0.0
 10
-1.324087
 20
3.667028
 30
0.0
 10
-1.360222
 20
3.625851
 30
0.0
 10
-1.396358
 20
3.584675
 30
0.0
 10
-1.432493
 20
3.543499
 30
0.0
 10
-1.468629
 20
3.502323
 30
0.0
 10
-1.504764
 20
3.461146
 30
0.0
 10
-1.540899
 20
3.419998
 30
0.0
 10
-1.577035
 20
3.378822
 30
0.0
 10
-1.613170
 20
3.337646
 30
0.0
 10
-1.649305
 20
3.296470
 30
0.0
 10
-1.635976
 20
3.291108
 30
0.0
 10
-1.598271
 20
3.274456
 30
0.0
 10
-1.539615
 20
3.245670
 30
0.0
 10
-1.463433
 20
3.204098
 30
0.0
 10
-1.373149
 20
3.148980
 30
0.0
 10
-1.272187
 20
3.079526
 30
0.0
 10
-1.163973
 20
2.995000
 30
0.0
 10
-1.051931
 20
2.894698
 30
0.0
 10
-0.939485
 20
2.777802
 30
0.0
 10
-0.830061
 20
2.643605
 30
0.0
 10
-0.727081
 20
2.491318
 30
0.0
 10
-0.633973
 20
2.320235
 30
0.0
 10
-0.554159
 20
2.129594
 30
0.0
 10
-0.491064
 20
1.918604
 30
0.0
 10
-0.448113
 20
1.686561
 30
0.0
 10
-0.428731
 20
1.432674
 30
0.0
 10
-0.428804
 20
1.304235
 30
0.0
 10
-0.435343
 20
1.167611
 30
0.0
 10
-0.448797
 20
1.025089
 30
0.0
 10
-0.469613
 20
0.878954
 30
0.0
 10
-0.498238
 20
0.731437
 30
0.0
 10
-0.535121
 20
0.584794
 30
0.0
 10
-0.580709
 20
0.441340
 30
0.0
 10
-0.635449
 20
0.303277
 30
0.0
 10
-0.699790
 20
0.172891
 30
0.0
 10
-0.774178
 20
0.052438
 30
0.0
 10
-0.859062
 20
-0.055794
 30
0.0
 10
-0.954890
 20
-0.149576
 30
0.0
 10
-1.062108
 20
-0.226623
 30
0.0
 10
-1.181165
 20
-0.284704
 30
0.0
 10
-1.312508
 20
-0.321506
 30
0.0
 10
-1.456584
 20
-0.334771
 30
0.0
 10
-1.596276
 20
-0.327997
 30
0.0
 10
-1.737426
 20
-0.306266
 30
0.0
 10
-1.878886
 20
-0.269662
 30
0.0
 10
-2.019506
 20
-0.218580
 30
0.0
 10
-2.158137
 20
-0.153274
 30
0.0
 10
-2.293631
 20
-0.073997
 30
0.0
 10
-2.424838
 20
0.019023
 30
0.0
 10
-2.550609
 20
0.125534
 30
0.0
 10
-2.669796
 20
0.245281
 30
0.0
 10
-2.781249
 20
0.377982
 30
0.0
 10
-2.883818
 20
0.523382
 30
0.0
 10
-2.976357
 20
0.681286
 30
0.0
 10
-3.057713
 20
0.851381
 30
0.0
 10
-3.126740
 20
1.033471
 30
0.0
 10
-3.182288
 20
1.227245
 30
0.0
 10
-3.223208
 20
1.432505
 30
0.0
 10
-3.250411
 20
1.718001
 30
0.0
 10
-3.245422
 20
2.005106
 30
0.0
 10
-3.212436
 20
2.291053
 30
0.0
 10
-3.155656
 20
2.573078
 30
0.0
 10
-3.079282
 20
2.848442
 30
0.0
 10
-2.987513
 20
3.114352
 30
0.0
 10
-2.884551
 20
3.368070
 30
0.0
 10
-2.774594
 20
3.606830
 30
0.0
 10
-2.661844
 20
3.827810
 30
0.0
 10
-2.550499
 20
4.028328
 30
0.0
 10
-2.444762
 20
4.205564
 30
0.0
 10
-2.348830
 20
4.356779
 30
0.0
 10
-2.266906
 20
4.479207
 30
0.0
 10
-2.203188
 20
4.570082
 30
0.0
 10
-2.161878
 20
4.626611
 30
0.0
 10
-2.147175
 20
4.647101
 30
0.0
  0
ENDSEC
  0
SECTION
  2
OBJECTS
  0
DICTIONARY
  5
C
330
0
100
AcDbDictionary
  3
ACAD_GROUP
350
D
  3
ACAD_MLINESTYLE
350
17
  0
DICTIONARY
  5
D
330
C
100
AcDbDictionary
  0
DICTIONARY
  5
1A
330
C
100
AcDbDictionary
  0
DICTIONARY
  5
17
330
C
100
AcDbDictionary
  3
STANDARD
350
18
  0
DICTIONARY
  5
19
330
C
100
AcDbDictionary
  0
ENDSEC
  0
EOF
