<?xml version="1.0" encoding="UTF-8" standalone="no"?>
<!-- Created with Inkscape (http://www.inkscape.org/) -->

<svg
   xmlns:dc="http://purl.org/dc/elements/1.1/"
   xmlns:cc="http://creativecommons.org/ns#"
   xmlns:rdf="http://www.w3.org/1999/02/22-rdf-syntax-ns#"
   xmlns:svg="http://www.w3.org/2000/svg"
   xmlns="http://www.w3.org/2000/svg"
   xmlns:sodipodi="http://sodipodi.sourceforge.net/DTD/sodipodi-0.dtd"
   xmlns:inkscape="http://www.inkscape.org/namespaces/inkscape"
   width="744.09448819"
   height="1052.3622047"
   id="svg2"
   version="1.1"
   inkscape:version="0.48.4 r9939"
   sodipodi:docname="obijuan-academy-logo4.svg">
  <defs
     id="defs4" />
  <sodipodi:namedview
     id="base"
     pagecolor="#ffffff"
     bordercolor="#666666"
     borderopacity="1.0"
     inkscape:pageopacity="0.0"
     inkscape:pageshadow="2"
     inkscape:zoom="0.49497475"
     inkscape:cx="273.33026"
     inkscape:cy="544.42817"
     inkscape:document-units="px"
     inkscape:current-layer="layer2"
     showgrid="false"
     inkscape:window-width="1450"
     inkscape:window-height="1016"
     inkscape:window-x="65"
     inkscape:window-y="27"
     inkscape:window-maximized="0" />
  <metadata
     id="metadata7">
    <rdf:RDF>
      <cc:Work
         rdf:about="">
        <dc:format>image/svg+xml</dc:format>
        <dc:type
           rdf:resource="http://purl.org/dc/dcmitype/StillImage" />
        <dc:title></dc:title>
      </cc:Work>
    </rdf:RDF>
  </metadata>
  <g
     inkscape:groupmode="layer"
     id="layer2"
     inkscape:label="capa1"
     style="display:inline">
    <path
       style="fill:none;stroke:#000000;stroke-width:1px;stroke-linecap:butt;stroke-linejoin:miter;stroke-opacity:1"
       d="m -120.53712,1130.3486 -8.86564,-15.3095 -5.23879,-19.3382 -43.92522,-6.0432 0.80597,-47.9427 43.11925,-6.849 2.82088,-11.2806 6.85073,-16.921 4.83581,-8.8633 4.8358,-6.84896 -27.80588,-35.85631 35.05959,-33.8419 35.462555,26.18719 12.49249,-8.0576 24.98499,-9.66911 6.44774,-0.40289 6.44774,-43.9139 47.95506,0.40289 6.04475,44.71965 20.95515,4.0288 24.17902,12.48928 35.462575,-25.78431 34.25361,34.64766 -26.19394,34.24479 11.68653,24.57562 5.64177,20.9498 44.32821,6.0432 0.80596,47.9427 -45.13417,5.6403 -1.61194,7.6547 -7.65668,23.7699 -2.82089,4.4317 -11.89837,-0.4745 -16.527245,-33.046 -55.85069,-96.8589 -84.34594,5.6976 -58.700205,121.9282 z"
       id="path3067"
       inkscape:connector-curvature="0"
       sodipodi:nodetypes="cccccccccccccccccccccccccccccccccccccc" />
  </g>
  <g
     inkscape:groupmode="layer"
     id="layer3"
     inkscape:label="capa2"
     style="display:inline">
    <path
       id="path2990-6"
       style="fill:#ffffff;fill-opacity:1;stroke:#000000;stroke-width:3.00000024;stroke-miterlimit:4;stroke-dashoffset:0;display:inline"
       d="m 51.754255,1065.3946 -0.0656,2.5915 -0.19453,2.5575 -0.32033,2.5203 -0.44299,2.48 -0.56248,2.4365 -0.67879,2.3897 -0.79195,2.34 -0.90194,2.2869 -1.00876,2.2308 -1.11243,2.1714 -1.21292,2.1089 -1.31025,2.0433 -1.40441,1.9744 -1.49541,1.9024 -1.58324,1.8273 -1.66792,1.749 -1.74942,1.6675 -1.82776,1.5828 -1.90294,1.495 -1.97494,1.4041 -2.04379,1.3099 -2.10947,1.2126 -2.17198,1.1122 -2.23134,1.0085 -2.28751,0.9017 -2.34054,0.7917 -2.39039,0.6786 -2.43707,0.5624 -2.4806097,0.4428 -2.52096,0.3203 -2.55816,0.1945 -2.59218,0.065 -2.59219,-0.065 -2.55815,-0.1945 -2.52096,-0.3203 -2.48061,-0.4428 -2.4370803,-0.5624 -2.39039,-0.6786 -2.34054,-0.7917 -2.28751,-0.9017 -2.23133,-1.0085 -2.17199,-1.1122 -2.10946,-1.2126 -2.04379,-1.3099 -1.97495,-1.4041 -1.90293,-1.495 -1.82776,-1.5828 -1.74942,-1.6675 -1.66792,-1.749 -1.58324,-1.8273 -1.49542,-1.9024 -1.40441,-1.9744 -1.31025,-2.0433 -1.21291,-2.1089 -1.11243,-2.1714 -1.00876,-2.2308 -0.90194,-2.2869 -0.79195,-2.34 -0.6788,-2.3897 -0.56247,-2.4365 -0.44299,-2.48 -0.32034,-2.5203 -0.19452,-2.5575 -0.0656,-2.5915 0.0656,-2.5915 0.19452,-2.5575 0.32034,-2.5203 0.44299,-2.48 0.56247,-2.4364 0.6788,-2.3898 0.79195,-2.3399 0.90194,-2.287 1.00876,-2.2307 1.11243,-2.1714 1.21291,-2.109 1.31025,-2.0432 1.40441,-1.9745 1.49542,-1.9024 1.58324,-1.8273 1.66792,-1.749 1.74942,-1.6675 1.82776,-1.5828 1.90293,-1.495 1.97495,-1.4041 2.04379,-1.3099 2.10946,-1.2126 2.17199,-1.1121 2.23133,-1.0085 2.28751,-0.9017 2.34054,-0.7918 2.39039,-0.6786 2.4370803,-0.5623 2.48061,-0.4429 2.52096,-0.3203 2.55815,-0.1944 2.59219,-0.065 2.59218,0.065 2.55816,0.1944 2.52096,0.3203 2.4806097,0.4429 2.43707,0.5623 2.39039,0.6786 2.34054,0.7918 2.28751,0.9017 2.23134,1.0085 2.17198,1.1121 2.10947,1.2126 2.04379,1.3099 1.97494,1.4041 1.90294,1.495 1.82776,1.5828 1.74942,1.6675 1.66792,1.749 1.58324,1.8273 1.49541,1.9024 1.40441,1.9745 1.31025,2.0432 1.21292,2.109 1.11243,2.1714 1.00876,2.2307 0.90194,2.287 0.79195,2.3399 0.67879,2.3898 0.56248,2.4364 0.44299,2.48 0.32033,2.5203 0.19453,2.5575 z m -194.858465,110.0765 2.30456,-4.7968 2.30457,-4.7968 2.30456,-4.7968 2.30456,-4.7968 2.30456,-4.7967 2.30457,-4.7968 2.30456,-4.7968 2.30456,-4.7968 2.30457,-4.7968 2.30456,-4.7968 2.30457,-4.7968 2.30456,-4.7968 2.30456,-4.7967 2.30456,-4.7968 2.30457,-4.7968 2.30456,-4.7968 2.30456,-4.7968 2.30457,-4.7968 2.304555,-4.7968 2.30457,-4.7968 2.30456,-4.7968 2.30456,-4.7967 2.30456,-4.7968 2.30456,-4.7968 2.30457,-4.7968 2.30456,-4.7968 2.30457,-4.7968 2.30456,-4.7968 2.30456,-4.7968 2.30456,-4.7967 2.30457,-4.7968 2.30456,-4.7968 0.0617,-0.1189 0.18642,-0.3466 0.31323,-0.559 0.44214,-0.7562 0.5731,-0.938 0.70615,-1.1048 0.84129,-1.2562 0.97849,-1.3923 1.11777,-1.5133 1.25913,-1.6189 1.40257,-1.7094 1.54808,-1.7846 1.69568,-1.8444 1.84534,-1.8892 1.99709,-1.9186 2.15092,-1.9328 2.30681,-1.93167 2.4648,-1.9154 2.62486,-1.88384 2.78698,-1.83702 2.9512,-1.77498 3.11749,-1.69766 3.28585,-1.6051 3.4563,-1.4973 3.62882,-1.37425 3.80341,-1.23594 3.9801,-1.0824 4.15884,-0.91359 4.3396803,-0.72954 4.52258,-0.53026 4.70757005,-0.3157 4.89462995,-0.0859 4.88654,0.16141 4.6839797,0.40522 4.48453,0.6327 4.2882,0.84386 4.09497,1.03869 3.90485,1.2172 3.71784,1.37938 3.53395,1.52524 3.35317,1.65477 3.17549,1.76799 3.00092,1.86486 2.82947,1.94543 2.66113,2.00966 2.4959,2.05757 2.33377,2.08917 2.17476,2.1044 2.01886,2.1033 1.86607,2.086 1.71639,2.0522 1.56981,2.0022 1.42635,1.9359 1.28601,1.8531 1.14877,1.7542 1.01464,1.6388 0.88362,1.5071 0.75571,1.3592 0.63092,1.1948 0.50923,1.0142 0.39065,0.8173 0.27518,0.6039 0.16284,0.3744 0.0536,0.1284 2.21641,4.6961 2.21641,4.696 2.21641,4.6961 2.21641,4.6961 2.21641,4.696 2.21642,4.6961 2.2164,4.6961 2.21641,4.696 2.21641,4.6961 2.21641,4.6961 2.216425,4.696 2.2164,4.6961 2.21642,4.6961 2.2164,4.696 2.21642,4.6961 2.21641,4.6961 2.2164,4.696 2.21642,4.6961 2.2164,4.6961 2.21642,4.696 2.21641,4.6961 2.21641,4.6961 2.21641,4.696 2.2164,4.6961 2.21642,4.6961 2.21641,4.6961 2.21641,4.696 2.21641,4.6961 2.21641,4.6961 2.21641,4.696 2.21641,4.6961 2.21641,4.6961 -1.09561,1.0953 -1.09562,1.0953 -1.09561,1.0954 -1.09561,1.0953 -1.09561,1.0953 -1.09561,1.0953 -1.09561,1.0954 -1.09561,1.0953 -1.09562,1.0953 -1.09561,1.0954 -1.09561,1.0953 -1.09561,1.0953 -1.09562,1.0953 -1.09561,1.0954 -1.09561,1.0953 -1.09561,1.0953 -1.09561,1.0954 -1.09561,1.0953 -1.09561,1.0953 -1.09562,1.0954 -1.09561,1.0953 -1.09561,1.0953 -1.09561,1.0953 -1.09562,1.0954 -1.09561,1.0953 -1.09561,1.0953 -1.09561,1.0954 -1.09561,1.0953 -1.09561,1.0953 -1.09561,1.0954 -1.09562,1.0953 -1.09561,1.0953 -1.33488,-0.025 -1.33489,-0.025 -1.33488,-0.025 -1.33488,-0.025 -1.33489,-0.025 -1.33488,-0.025 -1.33488,-0.025 -1.33488,-0.025 -1.334895,-0.025 -1.33488,-0.025 -1.33488,-0.025 -1.33489,-0.025 -1.33488,-0.025 -1.33489,-0.025 -1.33488,-0.025 -1.33488,-0.025 -1.33489,-0.025 -1.33488,-0.025 -1.33488,-0.025 -1.33488,-0.025 -1.33489,-0.025 -1.33488,-0.025 -1.33488,-0.025 -1.33489,-0.025 -1.33488,-0.025 -1.33489,-0.025 -1.33488,-0.025 -1.33488,-0.025 -1.33489,-0.025 -1.33488,-0.025 -1.33488,-0.025 -1.33488,-0.025 -1.04525,-2.2032 -1.04523,-2.2033 -1.04524,-2.2032 -1.04524,-2.2033 -1.04524,-2.2032 -1.04524,-2.2033 -1.04524,-2.2032 -1.04524,-2.2033 -1.04523,-2.2032 -1.04525,-2.2033 -1.04524,-2.2032 -1.04523,-2.2033 -1.04524,-2.2032 -1.04524,-2.2033 -1.04524,-2.2032 -1.04524,-2.2033 -1.04524,-2.2032 -1.04524,-2.2033 -1.04523,-2.2032 -1.04525,-2.2033 -1.04523,-2.2032 -1.04524,-2.2033 -1.04525,-2.2032 -1.04523,-2.2033 -1.04524,-2.2032 -1.04524,-2.2033 -1.04524,-2.2032 -1.04524,-2.2033 -1.04524,-2.2032 -1.04524,-2.2033 -1.04523,-2.2032 -1.04524,-2.2033 -0.0353,0.018 -0.10557,0.054 -0.17522,0.087 -0.24429,0.1177 -0.31276,0.1459 -0.38065,0.172 -0.44795,0.1955 -0.51465,0.2168 -0.58076,0.2357 -0.64629,0.2522 -0.71123,0.2663 -0.77557,0.2782 -0.83931,0.2876 -0.90249,0.2947 -0.96505,0.2994 -1.02704,0.3017 -1.08843,0.3018 -1.14923,0.2994 -1.20944,0.2947 -1.26907,0.2876 -1.32809,0.2782 -1.38654,0.2663 -1.44439,0.2522 -1.50164,0.2357 -1.55831,0.2168 -1.6144,0.1955 -1.66988,0.1719 -1.72479,0.146 -1.7790797,0.1176 -1.83282,0.087 -1.88593,0.054 -1.93848,0.018 -1.94424995,-0.018 -1.90278005,-0.054 -1.85999,-0.087 -1.81586,-0.1176 -1.77041,-0.146 -1.72362,-0.1719 -1.67552,-0.1955 -1.6260803,-0.2168 -1.57531,-0.2357 -1.52321,-0.2522 -1.46979,-0.2663 -1.41505,-0.2782 -1.35896,-0.2876 -1.30156,-0.2947 -1.24282,-0.2994 -1.18275,-0.3018 -1.12137,-0.3017 -1.05864,-0.2994 -0.99459,-0.2947 -0.92922,-0.2876 -0.86252,-0.2782 -0.79448,-0.2663 -0.72512,-0.2522 -0.65443,-0.2357 -0.58241,-0.2168 -0.50906,-0.1955 -0.4344,-0.172 -0.35839,-0.1459 -0.28106,-0.1177 -0.2024,-0.087 -0.12242,-0.054 -0.0411,-0.018 -1.04524,2.1907 -1.04524,2.1907 -1.04524,2.1906 -1.04523,2.1907 -1.04524,2.1906 -1.04525,2.1907 -1.04523,2.1907 -1.04524,2.1906 -1.04524,2.1907 -1.04524,2.1906 -1.04524,2.1907 -1.04524,2.1907 -1.04524,2.1906 -1.04523,2.1907 -1.04525,2.1906 -1.04524,2.1907 -1.04523,2.1907 -1.04524,2.1906 -1.04524,2.1907 -1.04524,2.1906 -1.04524,2.1907 -1.04524,2.1906 -1.04524,2.1907 -1.04524,2.1907 -1.04524,2.1906 -1.04523,2.1907 -1.04524,2.1906 -1.04525,2.1907 -1.04523,2.1907 -1.04524,2.1906 -1.04524,2.1907 -1.04524,2.1906 -1.36007,0 -1.36007,0 -1.36007,0 -1.36007,0 -1.36007,0 -1.36007,0 -1.36007,0 -1.36007,0 -1.36007,0 -1.36007,0 -1.36007,0 -1.36007,0 -1.36007,0 -1.36007,0 -1.36007,0 -1.36007,0 -1.36007,0 -1.36007,0 -1.36007,0 -1.36007,0 -1.36007,0 -1.36007,0 -1.36006,0 -1.36008,0 -1.36007,0 -1.360055,0 -1.36008,0 -1.36007,0 -1.36007,0 -1.36006,0 -1.36008,0 -1.36007,0 -1.05783,-1.0827 -1.05783,-1.0827 -1.05783,-1.0828 -1.05783,-1.0827 -1.05784,-1.0828 -1.05783,-1.0827 -1.05783,-1.0827 -1.05783,-1.0828 -1.05784,-1.0827 -1.05783,-1.0828 -1.05783,-1.0827 -1.05784,-1.0827 -1.05783,-1.0828 -1.05783,-1.0827 -1.05783,-1.0828 -1.05784,-1.0827 -1.05783,-1.0827 -1.05783,-1.0828 -1.05783,-1.0827 -1.05783,-1.0828 -1.05784,-1.0827 -1.05783,-1.0827 -1.05783,-1.0828 -1.05783,-1.0827 -1.05783,-1.0828 -1.05784,-1.0827 -1.05783,-1.0827 -1.05783,-1.0828 -1.05783,-1.0827 -1.05784,-1.0827 -1.05783,-1.0828 z"
       inkscape:connector-curvature="0"
       sodipodi:nodetypes="cccccccccccccccccccccccccccccccccccccccccccccccccccccccccccccccccccccccccccccccccccccccccccccccccccccccccccccccccccccccccccccccccccccccccccccccccccccccccccccccccccccccccccccccccccccccccccccccccccccccccccccccccccccccccccccccccccccccccccccccccccccccccccccccccccccccccccccccccccccccccccccccccccccccccccccccccccccccccccccccccccccccccccccccccccccccccccccccccccccccccccccccccccccccccccccccccccccccccccccccccccccccccccccccccccccccccccccccccccccccccccccccccccccccccccccccccccccccccccccccccccccccccccccccccccccccccccccccccc" />
  </g>
</svg>
