  0
SECTION
  2
HEADER
  9
$ACADVER
  1
AC1014
  9
$HANDSEED
  5
FFFF
  9
$MEASUREMENT
 70
     1
  0
ENDSEC
  0
SECTION
  2
TABLES
  0
TABLE
  2
VPORT
  5
8
330
0
100
AcDbSymbolTable
 70
     4
  0
VPORT
  5
2E
330
8
100
AcDbSymbolTableRecord
100
AcDbViewportTableRecord
  2
*ACTIVE
 70
     0
 10
0.0
 20
0.0
 11
1.0
 21
1.0
 12
210.0
 22
148.5
 13
0.0
 23
0.0
 14
10.0
 24
10.0
 15
10.0
 25
10.0
 16
0.0
 26
0.0
 36
1.0
 17
0.0
 27
0.0
 37
0.0
 40
341.0
 41
1.24
 42
50.0
 43
0.0
 44
0.0
 50
0.0
 51
0.0
 71
     0
 72
   100
 73
     1
 74
     3
 75
     0
 76
     0
 77
     0
 78
     0
  0
ENDTAB
  0
TABLE
  2
LTYPE
  5
5
330
0
100
AcDbSymbolTable
 70
     1
  0
LTYPE
  5
14
330
5
100
AcDbSymbolTableRecord
100
AcDbLinetypeTableRecord
  2
BYBLOCK
 70
     0
  3

 72
    65
 73
     0
 40
0.0
  0
LTYPE
  5
15
330
5
100
AcDbSymbolTableRecord
100
AcDbLinetypeTableRecord
  2
BYLAYER
 70
     0
  3

 72
    65
 73
     0
 40
0.0
  0
LTYPE
  5
16
330
5
100
AcDbSymbolTableRecord
100
AcDbLinetypeTableRecord
  2
CONTINUOUS
 70
     0
  3
Solid line
 72
    65
 73
     0
 40
0.0
  0
ENDTAB
  0
TABLE
  2
LAYER
  5
2
100
AcDbSymbolTable
 70
2
  0
LAYER
  5
50
100
AcDbSymbolTableRecord
100
AcDbLayerTableRecord
  2
0
 70
0
  6
CONTINUOUS
  0
LAYER
  5
51
100
AcDbSymbolTableRecord
100
AcDbLayerTableRecord
  2
Layer_1
 70
0
  6
CONTINUOUS
  0
ENDTAB
  0
TABLE
  2
STYLE
  5
3
330
0
100
AcDbSymbolTable
 70
     1
  0
STYLE
  5
11
330
3
100
AcDbSymbolTableRecord
100
AcDbTextStyleTableRecord
  2
STANDARD
 70
     0
 40
0.0
 41
1.0
 50
0.0
 71
     0
 42
2.5
  3
txt
  4

  0
ENDTAB
  0
TABLE
  2
VIEW
  5
6
330
0
100
AcDbSymbolTable
 70
     0
  0
ENDTAB
  0
TABLE
  2
UCS
  5
7
330
0
100
AcDbSymbolTable
 70
     0
  0
ENDTAB
  0
TABLE
  2
APPID
  5
9
330
0
100
AcDbSymbolTable
 70
     2
  0
APPID
  5
12
330
9
100
AcDbSymbolTableRecord
100
AcDbRegAppTableRecord
  2
ACAD
 70
     0
  0
ENDTAB
  0
TABLE
  2
DIMSTYLE
  5
A
330
0
100
AcDbSymbolTable
 70
     1
  0
DIMSTYLE
105
27
330
A
100
AcDbSymbolTableRecord
100
AcDbDimStyleTableRecord
  2
ISO-25
 70
     0
  3

  4

  5

  6

  7

 40
1.0
 41
2.5
 42
0.625
 43
3.75
 44
1.25
 45
0.0
 46
0.0
 47
0.0
 48
0.0
140
2.5
141
2.5
142
0.0
143
0.03937007874016
144
1.0
145
0.0
146
1.0
147
0.625
 71
     0
 72
     0
 73
     0
 74
     0
 75
     0
 76
     0
 77
     1
 78
     8
170
     0
171
     3
172
     1
173
     0
174
     0
175
     0
176
     0
177
     0
178
     0
270
     2
271
     2
272
     2
273
     2
274
     3
340
11
275
     0
280
     0
281
     0
282
     0
283
     0
284
     8
285
     0
286
     0
287
     3
288
     0
  0
ENDTAB
  0
TABLE
  2
BLOCK_RECORD
  5
1
330
0
100
AcDbSymbolTable
 70
     1
  0
BLOCK_RECORD
  5
1F
330
1
100
AcDbSymbolTableRecord
100
AcDbBlockTableRecord
  2
*MODEL_SPACE
  0
BLOCK_RECORD
  5
1B
330
1
100
AcDbSymbolTableRecord
100
AcDbBlockTableRecord
  2
*PAPER_SPACE
  0
ENDTAB
  0
ENDSEC
  0
SECTION
  2
BLOCKS
  0
BLOCK
  5
20
330
1F
100
AcDbEntity
  8
0
100
AcDbBlockBegin
  2
*MODEL_SPACE
 70
     0
 10
0.0
 20
0.0
 30
0.0
  3
*MODEL_SPACE
  1

  0
ENDBLK
  5
21
330
1F
100
AcDbEntity
  8
0
100
AcDbBlockEnd
  0
BLOCK
  5
1C
330
1B
100
AcDbEntity
 67
     1
  8
0
100
AcDbBlockBegin
  2
*PAPER_SPACE
  1

  0
ENDBLK
  5
1D
330
1B
100
AcDbEntity
 67
     1
  8
0
100
AcDbBlockEnd
  0
ENDSEC
  0
SECTION
  2
ENTITIES
  0
LWPOLYLINE
  5
100
100
AcDbEntity
  8
Layer_1
 62
7
100
AcDbPolyline
 90
89
 70
0
 10
-61.293812
 20
12.258775
 30
0.0
 10
-60.233326
 20
12.988432
 30
0.0
 10
-57.309137
 20
14.897928
 30
0.0
 10
-52.907144
 20
17.568004
 30
0.0
 10
-47.413257
 20
20.579420
 30
0.0
 10
-41.213380
 20
23.512922
 30
0.0
 10
-34.693411
 20
25.949268
 30
0.0
 10
-28.239257
 20
27.469207
 30
0.0
 10
-22.236823
 20
27.653495
 30
0.0
 10
-17.092865
 20
25.803305
 30
0.0
 10
-13.677274
 20
21.985429
 30
0.0
 10
-11.453453
 20
16.750576
 30
0.0
 10
-9.884797
 20
10.649459
 30
0.0
 10
-8.434708
 20
4.232770
 30
0.0
 10
-6.566583
 20
-1.948743
 30
0.0
 10
-3.743822
 20
-7.344409
 30
0.0
 10
0.570176
 20
-11.403498
 30
0.0
 10
6.491867
 20
-13.148534
 30
0.0
 10
13.412478
 20
-12.428021
 30
0.0
 10
20.780764
 20
-9.930157
 30
0.0
 10
28.045483
 20
-6.343197
 30
0.0
 10
34.655393
 20
-2.355312
 30
0.0
 10
40.059249
 20
1.345270
 30
0.0
 10
43.705805
 20
4.070295
 30
0.0
 10
45.043824
 20
5.131592
 30
0.0
 10
44.224197
 20
6.058127
 30
0.0
 10
43.404570
 20
6.984663
 30
0.0
 10
42.584943
 20
7.911198
 30
0.0
 10
41.765316
 20
8.837706
 30
0.0
 10
40.945692
 20
9.764241
 30
0.0
 10
40.126065
 20
10.690777
 30
0.0
 10
39.306438
 20
11.617312
 30
0.0
 10
38.486811
 20
12.543848
 30
0.0
 10
41.515865
 20
12.828949
 30
0.0
 10
44.544920
 20
13.114021
 30
0.0
 10
47.573974
 20
13.399122
 30
0.0
 10
50.603029
 20
13.684195
 30
0.0
 10
53.632086
 20
13.969296
 30
0.0
 10
56.661140
 20
14.254368
 30
0.0
 10
59.690195
 20
14.539469
 30
0.0
 10
62.719249
 20
14.824556
 30
0.0
 10
62.042167
 20
12.330036
 30
0.0
 10
61.365082
 20
9.835530
 30
0.0
 10
60.688000
 20
7.340996
 30
0.0
 10
60.010918
 20
4.846491
 30
0.0
 10
59.333836
 20
2.351985
 30
0.0
 10
58.656751
 20
-0.142549
 30
0.0
 10
57.979668
 20
-2.637055
 30
0.0
 10
57.302586
 20
-5.131561
 30
0.0
 10
56.233509
 20
-4.311931
 30
0.0
 10
55.164431
 20
-3.492329
 30
0.0
 10
54.095354
 20
-2.672700
 30
0.0
 10
53.026273
 20
-1.853070
 30
0.0
 10
51.957196
 20
-1.033440
 30
0.0
 10
50.888118
 20
-0.213810
 30
0.0
 10
49.819041
 20
0.605820
 30
0.0
 10
48.749963
 20
1.425449
 30
0.0
 10
47.228591
 20
0.281123
 30
0.0
 10
43.096011
 20
-2.658334
 30
0.0
 10
36.999545
 20
-6.652569
 30
0.0
 10
29.586504
 20
-10.961340
 30
0.0
 10
21.504204
 20
-14.844267
 30
0.0
 10
13.399964
 20
-17.561079
 30
0.0
 10
5.921095
 20
-18.371452
 30
0.0
 10
-0.285087
 20
-16.535060
 30
0.0
 10
-6.074994
 20
-11.847292
 30
0.0
 10
-10.069782
 20
-6.661516
 30
0.0
 10
-12.716601
 20
-1.244740
 30
0.0
 10
-14.462608
 20
4.135912
 30
0.0
 10
-15.754954
 20
9.213400
 30
0.0
 10
-17.040793
 20
13.720630
 30
0.0
 10
-18.767279
 20
17.390580
 30
0.0
 10
-21.381562
 20
19.956132
 30
0.0
 10
-25.380583
 20
20.853712
 30
0.0
 10
-30.602360
 20
20.027405
 30
0.0
 10
-36.505676
 20
17.971656
 30
0.0
 10
-42.549310
 20
15.180918
 30
0.0
 10
-48.192035
 20
12.149640
 30
0.0
 10
-52.892638
 20
9.372263
 30
0.0
 10
-56.109895
 20
7.343226
 30
0.0
 10
-57.302586
 20
6.557011
 30
0.0
 10
-57.801490
 20
7.269735
 30
0.0
 10
-58.300394
 20
7.982459
 30
0.0
 10
-58.799295
 20
8.695183
 30
0.0
 10
-59.298199
 20
9.407907
 30
0.0
 10
-59.797103
 20
10.120603
 30
0.0
 10
-60.296007
 20
10.833327
 30
0.0
 10
-60.794908
 20
11.546051
 30
0.0
 10
-61.293812
 20
12.258775
 30
0.0
  0
ENDSEC
  0
SECTION
  2
OBJECTS
  0
DICTIONARY
  5
C
330
0
100
AcDbDictionary
  3
ACAD_GROUP
350
D
  3
ACAD_MLINESTYLE
350
17
  0
DICTIONARY
  5
D
330
C
100
AcDbDictionary
  0
DICTIONARY
  5
1A
330
C
100
AcDbDictionary
  0
DICTIONARY
  5
17
330
C
100
AcDbDictionary
  3
STANDARD
350
18
  0
DICTIONARY
  5
19
330
C
100
AcDbDictionary
  0
ENDSEC
  0
EOF
