  0
SECTION
  2
HEADER
  9
$ACADVER
  1
AC1014
  9
$HANDSEED
  5
FFFF
  9
$MEASUREMENT
 70
     1
  0
ENDSEC
  0
SECTION
  2
TABLES
  0
TABLE
  2
VPORT
  5
8
330
0
100
AcDbSymbolTable
 70
     4
  0
VPORT
  5
2E
330
8
100
AcDbSymbolTableRecord
100
AcDbViewportTableRecord
  2
*ACTIVE
 70
     0
 10
0.0
 20
0.0
 11
1.0
 21
1.0
 12
210.0
 22
148.5
 13
0.0
 23
0.0
 14
10.0
 24
10.0
 15
10.0
 25
10.0
 16
0.0
 26
0.0
 36
1.0
 17
0.0
 27
0.0
 37
0.0
 40
341.0
 41
1.24
 42
50.0
 43
0.0
 44
0.0
 50
0.0
 51
0.0
 71
     0
 72
   100
 73
     1
 74
     3
 75
     0
 76
     0
 77
     0
 78
     0
  0
ENDTAB
  0
TABLE
  2
LTYPE
  5
5
330
0
100
AcDbSymbolTable
 70
     1
  0
LTYPE
  5
14
330
5
100
AcDbSymbolTableRecord
100
AcDbLinetypeTableRecord
  2
BYBLOCK
 70
     0
  3

 72
    65
 73
     0
 40
0.0
  0
LTYPE
  5
15
330
5
100
AcDbSymbolTableRecord
100
AcDbLinetypeTableRecord
  2
BYLAYER
 70
     0
  3

 72
    65
 73
     0
 40
0.0
  0
LTYPE
  5
16
330
5
100
AcDbSymbolTableRecord
100
AcDbLinetypeTableRecord
  2
CONTINUOUS
 70
     0
  3
Solid line
 72
    65
 73
     0
 40
0.0
  0
ENDTAB
  0
TABLE
  2
LAYER
  5
2
100
AcDbSymbolTable
 70
2
  0
LAYER
  5
50
100
AcDbSymbolTableRecord
100
AcDbLayerTableRecord
  2
0
 70
0
  6
CONTINUOUS
  0
LAYER
  5
51
100
AcDbSymbolTableRecord
100
AcDbLayerTableRecord
  2
Layer_1
 70
0
  6
CONTINUOUS
  0
ENDTAB
  0
TABLE
  2
STYLE
  5
3
330
0
100
AcDbSymbolTable
 70
     1
  0
STYLE
  5
11
330
3
100
AcDbSymbolTableRecord
100
AcDbTextStyleTableRecord
  2
STANDARD
 70
     0
 40
0.0
 41
1.0
 50
0.0
 71
     0
 42
2.5
  3
txt
  4

  0
ENDTAB
  0
TABLE
  2
VIEW
  5
6
330
0
100
AcDbSymbolTable
 70
     0
  0
ENDTAB
  0
TABLE
  2
UCS
  5
7
330
0
100
AcDbSymbolTable
 70
     0
  0
ENDTAB
  0
TABLE
  2
APPID
  5
9
330
0
100
AcDbSymbolTable
 70
     2
  0
APPID
  5
12
330
9
100
AcDbSymbolTableRecord
100
AcDbRegAppTableRecord
  2
ACAD
 70
     0
  0
ENDTAB
  0
TABLE
  2
DIMSTYLE
  5
A
330
0
100
AcDbSymbolTable
 70
     1
  0
DIMSTYLE
105
27
330
A
100
AcDbSymbolTableRecord
100
AcDbDimStyleTableRecord
  2
ISO-25
 70
     0
  3

  4

  5

  6

  7

 40
1.0
 41
2.5
 42
0.625
 43
3.75
 44
1.25
 45
0.0
 46
0.0
 47
0.0
 48
0.0
140
2.5
141
2.5
142
0.0
143
0.03937007874016
144
1.0
145
0.0
146
1.0
147
0.625
 71
     0
 72
     0
 73
     0
 74
     0
 75
     0
 76
     0
 77
     1
 78
     8
170
     0
171
     3
172
     1
173
     0
174
     0
175
     0
176
     0
177
     0
178
     0
270
     2
271
     2
272
     2
273
     2
274
     3
340
11
275
     0
280
     0
281
     0
282
     0
283
     0
284
     8
285
     0
286
     0
287
     3
288
     0
  0
ENDTAB
  0
TABLE
  2
BLOCK_RECORD
  5
1
330
0
100
AcDbSymbolTable
 70
     1
  0
BLOCK_RECORD
  5
1F
330
1
100
AcDbSymbolTableRecord
100
AcDbBlockTableRecord
  2
*MODEL_SPACE
  0
BLOCK_RECORD
  5
1B
330
1
100
AcDbSymbolTableRecord
100
AcDbBlockTableRecord
  2
*PAPER_SPACE
  0
ENDTAB
  0
ENDSEC
  0
SECTION
  2
BLOCKS
  0
BLOCK
  5
20
330
1F
100
AcDbEntity
  8
0
100
AcDbBlockBegin
  2
*MODEL_SPACE
 70
     0
 10
0.0
 20
0.0
 30
0.0
  3
*MODEL_SPACE
  1

  0
ENDBLK
  5
21
330
1F
100
AcDbEntity
  8
0
100
AcDbBlockEnd
  0
BLOCK
  5
1C
330
1B
100
AcDbEntity
 67
     1
  8
0
100
AcDbBlockBegin
  2
*PAPER_SPACE
  1

  0
ENDBLK
  5
1D
330
1B
100
AcDbEntity
 67
     1
  8
0
100
AcDbBlockEnd
  0
ENDSEC
  0
SECTION
  2
ENTITIES
  0
LWPOLYLINE
  5
100
100
AcDbEntity
  8
Layer_1
 62
7
100
AcDbPolyline
 90
49
 70
0
 10
-13.909523
 20
-6.249189
 30
0.0
 10
-12.158233
 20
-6.249189
 30
0.0
 10
-10.406945
 20
-6.249189
 30
0.0
 10
-8.655655
 20
-6.249189
 30
0.0
 10
-6.904364
 20
-6.249189
 30
0.0
 10
-5.153077
 20
-6.249189
 30
0.0
 10
-3.401786
 20
-6.249189
 30
0.0
 10
-1.650496
 20
-6.249189
 30
0.0
 10
0.100795
 20
-6.249189
 30
0.0
 10
1.852082
 20
-6.249189
 30
0.0
 10
3.603373
 20
-6.249189
 30
0.0
 10
5.354663
 20
-6.249189
 30
0.0
 10
7.105951
 20
-6.249189
 30
0.0
 10
8.857242
 20
-6.249189
 30
0.0
 10
10.608532
 20
-6.249189
 30
0.0
 10
12.359820
 20
-6.249189
 30
0.0
 10
14.111110
 20
-6.249189
 30
0.0
 10
14.045505
 20
-6.394054
 30
0.0
 10
13.850859
 20
-6.803163
 30
0.0
 10
13.530415
 20
-7.438502
 30
0.0
 10
13.087425
 20
-8.261913
 30
0.0
 10
12.525137
 20
-9.235354
 30
0.0
 10
11.846796
 20
-10.320724
 30
0.0
 10
11.055654
 20
-11.479896
 30
0.0
 10
10.154959
 20
-12.674796
 30
0.0
 10
9.147959
 20
-13.867354
 30
0.0
 10
8.037900
 20
-15.019442
 30
0.0
 10
6.828033
 20
-16.092959
 30
0.0
 10
5.521604
 20
-17.049862
 30
0.0
 10
4.121860
 20
-17.852050
 30
0.0
 10
2.632054
 20
-18.461368
 30
0.0
 10
1.055431
 20
-18.839800
 30
0.0
 10
-0.604761
 20
-18.949189
 30
0.0
 10
-2.249106
 20
-18.773364
 30
0.0
 10
-3.780943
 20
-18.345628
 30
0.0
 10
-5.201159
 20
-17.702331
 30
0.0
 10
-6.510639
 20
-16.879794
 30
0.0
 10
-7.710270
 20
-15.914312
 30
0.0
 10
-8.800940
 20
-14.842263
 30
0.0
 10
-9.783531
 20
-13.699912
 30
0.0
 10
-10.658927
 20
-12.523610
 30
0.0
 10
-11.428022
 20
-11.349678
 30
0.0
 10
-12.091693
 20
-10.214411
 30
0.0
 10
-12.650832
 20
-9.154159
 30
0.0
 10
-13.106325
 20
-8.205215
 30
0.0
 10
-13.459052
 20
-7.403958
 30
0.0
 10
-13.709905
 20
-6.786625
 30
0.0
 10
-13.859768
 20
-6.389623
 30
0.0
 10
-13.909523
 20
-6.249189
 30
0.0
  0
LWPOLYLINE
  5
101
100
AcDbEntity
  8
Layer_1
 62
7
100
AcDbPolyline
 90
65
 70
0
 10
13.838554
 20
9.731024
 30
0.0
 10
13.816710
 20
9.030238
 30
0.0
 10
13.752558
 20
8.349687
 30
0.0
 10
13.648243
 20
7.692843
 30
0.0
 10
13.505890
 20
7.063149
 30
0.0
 10
13.327625
 20
6.463991
 30
0.0
 10
13.115580
 20
5.898897
 30
0.0
 10
12.871878
 20
5.371255
 30
0.0
 10
12.598650
 20
4.884534
 30
0.0
 10
12.298024
 20
4.442151
 30
0.0
 10
11.972128
 20
4.047604
 30
0.0
 10
11.623090
 20
3.704281
 30
0.0
 10
11.253037
 20
3.415652
 30
0.0
 10
10.864096
 20
3.185190
 30
0.0
 10
10.458396
 20
3.016280
 30
0.0
 10
10.038065
 20
2.912422
 30
0.0
 10
9.605232
 20
2.877031
 30
0.0
 10
9.172399
 20
2.912422
 30
0.0
 10
8.752069
 20
3.016280
 30
0.0
 10
8.346369
 20
3.185190
 30
0.0
 10
7.957427
 20
3.415652
 30
0.0
 10
7.587374
 20
3.704281
 30
0.0
 10
7.238336
 20
4.047604
 30
0.0
 10
6.912440
 20
4.442151
 30
0.0
 10
6.611814
 20
4.884534
 30
0.0
 10
6.338586
 20
5.371255
 30
0.0
 10
6.094884
 20
5.898897
 30
0.0
 10
5.882840
 20
6.463991
 30
0.0
 10
5.704574
 20
7.063149
 30
0.0
 10
5.562221
 20
7.692843
 30
0.0
 10
5.457906
 20
8.349687
 30
0.0
 10
5.393754
 20
9.030238
 30
0.0
 10
5.371910
 20
9.731024
 30
0.0
 10
5.393754
 20
10.431781
 30
0.0
 10
5.457906
 20
11.112332
 30
0.0
 10
5.562221
 20
11.769176
 30
0.0
 10
5.704574
 20
12.398898
 30
0.0
 10
5.882840
 20
12.998028
 30
0.0
 10
6.094884
 20
13.563122
 30
0.0
 10
6.338586
 20
14.090764
 30
0.0
 10
6.611814
 20
14.577513
 30
0.0
 10
6.912440
 20
15.019868
 30
0.0
 10
7.238336
 20
15.414432
 30
0.0
 10
7.587374
 20
15.757744
 30
0.0
 10
7.957427
 20
16.046364
 30
0.0
 10
8.346369
 20
16.276841
 30
0.0
 10
8.752069
 20
16.445734
 30
0.0
 10
9.172399
 20
16.549597
 30
0.0
 10
9.605232
 20
16.584982
 30
0.0
 10
10.038065
 20
16.549597
 30
0.0
 10
10.458396
 20
16.445734
 30
0.0
 10
10.864096
 20
16.276841
 30
0.0
 10
11.253037
 20
16.046364
 30
0.0
 10
11.623090
 20
15.757744
 30
0.0
 10
11.972128
 20
15.414432
 30
0.0
 10
12.298024
 20
15.019868
 30
0.0
 10
12.598650
 20
14.577513
 30
0.0
 10
12.871878
 20
14.090764
 30
0.0
 10
13.115580
 20
13.563122
 30
0.0
 10
13.327625
 20
12.998028
 30
0.0
 10
13.505890
 20
12.398898
 30
0.0
 10
13.648243
 20
11.769176
 30
0.0
 10
13.752558
 20
11.112332
 30
0.0
 10
13.816710
 20
10.431781
 30
0.0
 10
13.838554
 20
9.731024
 30
0.0
  0
LWPOLYLINE
  5
102
100
AcDbEntity
  8
Layer_1
 62
7
100
AcDbPolyline
 90
65
 70
0
 10
-5.039683
 20
9.877779
 30
0.0
 10
-5.061527
 20
9.176993
 30
0.0
 10
-5.125679
 20
8.496471
 30
0.0
 10
-5.229993
 20
7.839627
 30
0.0
 10
-5.372346
 20
7.209904
 30
0.0
 10
-5.550612
 20
6.610775
 30
0.0
 10
-5.762657
 20
6.045653
 30
0.0
 10
-6.006359
 20
5.518010
 30
0.0
 10
-6.279586
 20
5.031290
 30
0.0
 10
-6.580212
 20
4.588935
 30
0.0
 10
-6.906108
 20
4.194360
 30
0.0
 10
-7.255147
 20
3.851065
 30
0.0
 10
-7.625199
 20
3.562436
 30
0.0
 10
-8.014141
 20
3.331945
 30
0.0
 10
-8.419841
 20
3.163063
 30
0.0
 10
-8.840172
 20
3.059206
 30
0.0
 10
-9.273005
 20
3.023815
 30
0.0
 10
-9.705838
 20
3.059206
 30
0.0
 10
-10.126168
 20
3.163063
 30
0.0
 10
-10.531868
 20
3.331945
 30
0.0
 10
-10.920810
 20
3.562436
 30
0.0
 10
-11.290862
 20
3.851065
 30
0.0
 10
-11.639901
 20
4.194360
 30
0.0
 10
-11.965797
 20
4.588935
 30
0.0
 10
-12.266423
 20
5.031290
 30
0.0
 10
-12.539651
 20
5.518010
 30
0.0
 10
-12.783352
 20
6.045653
 30
0.0
 10
-12.995397
 20
6.610775
 30
0.0
 10
-13.173663
 20
7.209904
 30
0.0
 10
-13.316016
 20
7.839627
 30
0.0
 10
-13.420331
 20
8.496471
 30
0.0
 10
-13.484483
 20
9.176993
 30
0.0
 10
-13.506327
 20
9.877779
 30
0.0
 10
-13.484483
 20
10.578565
 30
0.0
 10
-13.420331
 20
11.259088
 30
0.0
 10
-13.316016
 20
11.915932
 30
0.0
 10
-13.173663
 20
12.545654
 30
0.0
 10
-12.995397
 20
13.144784
 30
0.0
 10
-12.783352
 20
13.709905
 30
0.0
 10
-12.539651
 20
14.237548
 30
0.0
 10
-12.266423
 20
14.724268
 30
0.0
 10
-11.965797
 20
15.166640
 30
0.0
 10
-11.639901
 20
15.561204
 30
0.0
 10
-11.290862
 20
15.904516
 30
0.0
 10
-10.920810
 20
16.193136
 30
0.0
 10
-10.531868
 20
16.423613
 30
0.0
 10
-10.126168
 20
16.592506
 30
0.0
 10
-9.705838
 20
16.696370
 30
0.0
 10
-9.273005
 20
16.731755
 30
0.0
 10
-8.840172
 20
16.696370
 30
0.0
 10
-8.419841
 20
16.592506
 30
0.0
 10
-8.014141
 20
16.423613
 30
0.0
 10
-7.625199
 20
16.193136
 30
0.0
 10
-7.255147
 20
15.904516
 30
0.0
 10
-6.906108
 20
15.561204
 30
0.0
 10
-6.580212
 20
15.166640
 30
0.0
 10
-6.279586
 20
14.724268
 30
0.0
 10
-6.006359
 20
14.237548
 30
0.0
 10
-5.762657
 20
13.709905
 30
0.0
 10
-5.550612
 20
13.144784
 30
0.0
 10
-5.372346
 20
12.545654
 30
0.0
 10
-5.229993
 20
11.915932
 30
0.0
 10
-5.125679
 20
11.259088
 30
0.0
 10
-5.061527
 20
10.578565
 30
0.0
 10
-5.039683
 20
9.877779
 30
0.0
  0
LWPOLYLINE
  5
103
100
AcDbEntity
  8
Layer_1
 62
7
100
AcDbPolyline
 90
65
 70
0
 10
28.305546
 20
0.372027
 30
0.0
 10
28.157621
 20
-2.557412
 30
0.0
 10
27.723453
 20
-5.402212
 30
0.0
 10
27.017440
 20
-8.148008
 30
0.0
 10
26.053984
 20
-10.780351
 30
0.0
 10
24.847487
 20
-13.284904
 30
0.0
 10
23.412353
 20
-15.647189
 30
0.0
 10
21.762982
 20
-17.852868
 30
0.0
 10
19.913774
 20
-19.887493
 30
0.0
 10
17.879135
 20
-21.736726
 30
0.0
 10
15.673461
 20
-23.386089
 30
0.0
 10
13.311160
 20
-24.821217
 30
0.0
 10
10.806627
 20
-26.027717
 30
0.0
 10
8.174269
 20
-26.991168
 30
0.0
 10
5.428487
 20
-27.697175
 30
0.0
 10
2.583679
 20
-28.131345
 30
0.0
 10
-0.345748
 20
-28.279286
 30
0.0
 10
-3.275176
 20
-28.131345
 30
0.0
 10
-6.119984
 20
-27.697175
 30
0.0
 10
-8.865766
 20
-26.991168
 30
0.0
 10
-11.498124
 20
-26.027717
 30
0.0
 10
-14.002657
 20
-24.821217
 30
0.0
 10
-16.364958
 20
-23.386089
 30
0.0
 10
-18.570632
 20
-21.736726
 30
0.0
 10
-20.605271
 20
-19.887493
 30
0.0
 10
-22.454479
 20
-17.852868
 30
0.0
 10
-24.103850
 20
-15.647189
 30
0.0
 10
-25.538984
 20
-13.284904
 30
0.0
 10
-26.745481
 20
-10.780351
 30
0.0
 10
-27.708937
 20
-8.148008
 30
0.0
 10
-28.414949
 20
-5.402212
 30
0.0
 10
-28.849117
 20
-2.557412
 30
0.0
 10
-28.997041
 20
0.372027
 30
0.0
 10
-28.849117
 20
3.301437
 30
0.0
 10
-28.414949
 20
6.146265
 30
0.0
 10
-27.708937
 20
8.892033
 30
0.0
 10
-26.745481
 20
11.524405
 30
0.0
 10
-25.538984
 20
14.028929
 30
0.0
 10
-24.103850
 20
16.391228
 30
0.0
 10
-22.454479
 20
18.596902
 30
0.0
 10
-20.605271
 20
20.631541
 30
0.0
 10
-18.570632
 20
22.480748
 30
0.0
 10
-16.364958
 20
24.130120
 30
0.0
 10
-14.002657
 20
25.565254
 30
0.0
 10
-11.498124
 20
26.771751
 30
0.0
 10
-8.865766
 20
27.735207
 30
0.0
 10
-6.119984
 20
28.441220
 30
0.0
 10
-3.275176
 20
28.875387
 30
0.0
 10
-0.345748
 20
29.023311
 30
0.0
 10
2.583679
 20
28.875387
 30
0.0
 10
5.428487
 20
28.441220
 30
0.0
 10
8.174269
 20
27.735207
 30
0.0
 10
10.806627
 20
26.771751
 30
0.0
 10
13.311160
 20
25.565254
 30
0.0
 10
15.673461
 20
24.130120
 30
0.0
 10
17.879135
 20
22.480748
 30
0.0
 10
19.913774
 20
20.631541
 30
0.0
 10
21.762982
 20
18.596902
 30
0.0
 10
23.412353
 20
16.391228
 30
0.0
 10
24.847487
 20
14.028929
 30
0.0
 10
26.053984
 20
11.524405
 30
0.0
 10
27.017440
 20
8.892033
 30
0.0
 10
27.723453
 20
6.146265
 30
0.0
 10
28.157621
 20
3.301437
 30
0.0
 10
28.305546
 20
0.372027
 30
0.0
  0
ENDSEC
  0
SECTION
  2
OBJECTS
  0
DICTIONARY
  5
C
330
0
100
AcDbDictionary
  3
ACAD_GROUP
350
D
  3
ACAD_MLINESTYLE
350
17
  0
DICTIONARY
  5
D
330
C
100
AcDbDictionary
  0
DICTIONARY
  5
1A
330
C
100
AcDbDictionary
  0
DICTIONARY
  5
17
330
C
100
AcDbDictionary
  3
STANDARD
350
18
  0
DICTIONARY
  5
19
330
C
100
AcDbDictionary
  0
ENDSEC
  0
EOF
